<?xml version="1.0" encoding="UTF-8"?>
<svg version="1.1" xmlns="http://www.w3.org/2000/svg" width="572" height="398">
<path d="M0 0 C4.99617525 3.93016727 8.80140021 7.96115332 12.3125 13.25 C12.77615967 13.93819824 13.23981934 14.62639648 13.7175293 15.33544922 C35.14181817 47.68456213 48.03789596 86.48406755 40.375 125.5 C37.23764755 139.9133244 31.86200171 156.56375297 22.28341675 168.06030273 C16.52761421 175.16423748 15.99465048 180.93044294 16.09765625 189.8828125 C16.08536484 191.17822968 16.07307343 192.47364685 16.06040955 193.80831909 C16.02843948 197.21824924 16.03753002 200.62682256 16.05578613 204.0368042 C16.06701694 207.52989038 16.03857092 211.02264259 16.01367188 214.515625 C15.97074038 221.34393196 15.97127309 228.17162796 16 235 C16.66 235 17.32 235 18 235 C18.37125 234.17048828 18.37125 234.17048828 18.75 233.32421875 C25.42472966 220.91339328 37.10593613 211.69261492 48.99853516 204.62475586 C53.4327116 201.86536659 54.78840413 200.01722143 56 195 C56.11444076 192.28552094 56.13744501 189.675453 56.0625 186.96875 C56.05356876 185.42058499 56.0471342 183.87240392 56.04296875 182.32421875 C56.02871007 179.9066343 55.99980076 177.49327336 55.92822266 175.07666016 C55.56425716 161.6208831 55.56425716 161.6208831 59.03149414 157.70654297 C61.63478466 156.12589412 64.14122879 155.0381218 67 154 C68.32148687 153.3137303 69.63414761 152.60995304 70.93359375 151.8828125 C72.08988281 151.30273438 73.24617187 150.72265625 74.4375 150.125 C75.61183594 149.52945313 76.78617188 148.93390625 77.99609375 148.3203125 C81 147 81 147 84 147 C84.07649331 153.93759035 84.12878497 160.87507065 84.16479492 167.81298828 C84.17981778 170.16980046 84.20024196 172.52658498 84.22631836 174.88330078 C84.26298821 178.28424942 84.27979196 181.68482621 84.29296875 185.0859375 C84.30845261 186.12801361 84.32393646 187.17008972 84.33988953 188.2437439 C84.34296406 201.81609023 79.52107506 212.91444184 70.36328125 222.8828125 C66.91546452 225.97160038 63.04487474 227.99458697 59.00390625 230.21484375 C54.03190256 233.16959757 50.0747433 236.9252567 46 241 C45.50918945 241.48823242 45.01837891 241.97646484 44.51269531 242.47949219 C35.20442785 251.834156 27.43071315 262.11387307 20 273 C19.29528564 273.88961426 18.59057129 274.77922852 17.86450195 275.69580078 C15.47369455 279.93269844 15.39796218 283.11958608 15.390625 287.8984375 C15.37408875 288.73339752 15.35755249 289.56835754 15.34051514 290.42861938 C15.29219655 293.07748895 15.27070075 295.72578512 15.25 298.375 C15.22182672 300.17841401 15.19189739 301.9818015 15.16015625 303.78515625 C15.08644228 308.19005692 15.03676943 312.5946423 15 317 C15.66 317 16.32 317 17 317 C17.27529541 316.41460449 17.55059082 315.82920898 17.83422852 315.22607422 C18.95634598 313.0833586 20.17804322 311.29548776 21.65234375 309.3828125 C22.17578369 308.70065674 22.69922363 308.01850098 23.23852539 307.31567383 C23.79918701 306.59275146 24.35984863 305.8698291 24.9375 305.125 C25.81039673 303.99324341 25.81039673 303.99324341 26.70092773 302.83862305 C28.4637631 300.55633149 30.23177427 298.27811626 32 296 C32.96100669 294.75395961 33.92194933 293.50786982 34.8828125 292.26171875 C57.06122227 263.61945135 83.67258566 232.99896561 121.21875 226.4375 C125.65379091 225.92435477 129.97901295 225.89079546 134.4375 225.9375 C135.67790039 225.94426758 135.67790039 225.94426758 136.94335938 225.95117188 C138.96227146 225.96284189 140.98114574 225.98077282 143 226 C139.18208812 239.025817 133.25287376 250.06533554 124 260 C123.40960938 260.64453125 122.81921875 261.2890625 122.2109375 261.953125 C113.52568412 270.44707324 101.42265922 274.75719459 90 278.125 C83.31482912 280.10882429 78.02632831 281.97367169 73 287 C72.30390625 287.63421875 71.6078125 288.2684375 70.890625 288.921875 C64.98309259 294.50347459 60.14894361 300.80463264 55.29589844 307.28515625 C53.15494575 310.11824813 50.95118102 312.90112403 48.75 315.6875 C47.82658617 316.86179303 46.90341583 318.03627758 45.98046875 319.2109375 C44.43643912 321.17512185 42.89092817 323.13808269 41.34228516 325.09863281 C23.74523795 344.86525477 23.74523795 344.86525477 15.68359375 368.5078125 C15.6524221 369.76874222 15.6524221 369.76874222 15.62062073 371.05514526 C15.55514561 373.74501235 15.4962498 376.43497843 15.4375 379.125 C15.39431284 380.94662489 15.35069848 382.76823971 15.30664062 384.58984375 C15.19866093 389.05979577 15.09957271 393.52982108 15 398 C5.76 398 -3.48 398 -13 398 C-12.94457031 395.35871094 -12.88914062 392.71742188 -12.83203125 389.99609375 C-12.81576398 387.3843187 -12.81852375 384.77318967 -12.82299805 382.16137695 C-12.81610214 380.37212863 -12.79000249 378.5828315 -12.74291992 376.79418945 C-12.41091164 363.4877452 -14.62000623 355.56790847 -23.5848999 345.60604858 C-25.8811747 342.99992277 -27.91865662 340.21734763 -30 337.4375 C-37.88740625 327.20490806 -45.88785706 317.05517119 -54 307 C-55.07701172 305.66001953 -55.07701172 305.66001953 -56.17578125 304.29296875 C-58.42919868 301.5102512 -60.70809045 298.75107637 -63 296 C-63.7321875 295.10667969 -64.464375 294.21335937 -65.21875 293.29296875 C-65.9509375 292.43316406 -66.683125 291.57335937 -67.4375 290.6875 C-68.07558594 289.92824219 -68.71367187 289.16898437 -69.37109375 288.38671875 C-76.37390406 282.02904104 -84.47732615 278.86682233 -93.375 276.0625 C-114.06299829 269.15167047 -126.56073567 258.64760351 -136.5703125 238.90234375 C-138.59588555 234.60234153 -140.20197839 230.70412736 -141 226 C-111.14031192 225.08592792 -88.88839374 235.35804667 -67 255 C-65.62328125 256.19496094 -65.62328125 256.19496094 -64.21875 257.4140625 C-59.7591995 261.32288537 -55.65174136 265.32012208 -51.83203125 269.85546875 C-49.68630903 272.36719902 -47.43785871 274.76915184 -45.1875 277.1875 C-40.28221915 282.5722444 -35.85239525 288.2530749 -31.47021484 294.06201172 C-28.52951419 297.93834547 -25.54465892 301.78053469 -22.5625 305.625 C-21.65709473 306.79881226 -21.65709473 306.79881226 -20.73339844 307.99633789 C-20.16266602 308.73231201 -19.59193359 309.46828613 -19.00390625 310.2265625 C-18.49674072 310.88221191 -17.9895752 311.53786133 -17.46704102 312.21337891 C-16.06480091 313.92108287 -14.59033116 315.46795633 -13 317 C-12.8944321 311.70079966 -12.85695007 306.40665843 -12.87792969 301.10644531 C-12.87600333 299.31043814 -12.85664791 297.51435003 -12.81835938 295.71875 C-12.54285852 282.0049297 -14.81343286 274.22480505 -24 264 C-25.08605679 262.65453758 -26.16997116 261.30733721 -27.25 259.95703125 C-28.15990372 258.90297803 -29.07638783 257.85456216 -30 256.8125 C-30.50072021 256.23991455 -31.00144043 255.6673291 -31.51733398 255.07739258 C-32.52777926 253.92545615 -33.54126972 252.77618219 -34.55810547 251.62988281 C-35.91648785 250.09440012 -37.25767019 248.54375031 -38.59765625 246.9921875 C-45.54451645 239.08751931 -52.96087467 232.15730206 -62.1875 227 C-71.87782282 221.36394853 -77.5114341 212.52124811 -81 202 C-83.91242275 190.82980765 -83.22459383 179.19201512 -83.125 167.75 C-83.11494943 165.73307736 -83.10582726 163.71614988 -83.09765625 161.69921875 C-83.07580895 156.79935762 -83.04139364 151.89973339 -83 147 C-79.25153022 147.5159945 -76.19887066 148.15224634 -72.87109375 149.9609375 C-72.14599609 150.35023438 -71.42089844 150.73953125 -70.67382812 151.140625 C-69.93583984 151.54796875 -69.19785156 151.9553125 -68.4375 152.375 C-67.69564453 152.77460938 -66.95378906 153.17421875 -66.18945312 153.5859375 C-64.11653009 154.70823243 -62.05134218 155.83871418 -60 157 C-59.10571289 157.37608398 -58.21142578 157.75216797 -57.29003906 158.13964844 C-55 160 -55 160 -54.37231445 163.56591797 C-54.34469579 165.0410857 -54.34337089 166.5168956 -54.36328125 167.9921875 C-54.34771431 169.16661911 -54.34771431 169.16661911 -54.33183289 170.36477661 C-54.30211454 172.86862903 -54.30552709 175.37100294 -54.3125 177.875 C-54.30359274 180.37144042 -54.28756289 182.86748409 -54.2610321 185.36380005 C-54.24618079 186.91636541 -54.24227605 188.46908505 -54.25080872 190.021698 C-54.22931063 194.11642971 -53.93584538 197.35738073 -52 201 C-49.9736885 202.81599954 -49.9736885 202.81599954 -47.5 204.3125 C-35.49427174 212.31631884 -24.9214015 221.59548689 -16.375 233.28515625 C-15.09452919 235.12692287 -15.09452919 235.12692287 -13 236 C-13 216.2 -13 196.4 -13 176 C-13.99 175.67 -14.98 175.34 -16 175 C-17.23925781 173.48803711 -17.23925781 173.48803711 -18.453125 171.52734375 C-18.90421631 170.80071533 -19.35530762 170.07408691 -19.82006836 169.32543945 C-20.2919458 168.53741943 -20.76382324 167.74939941 -21.25 166.9375 C-21.98198608 165.72163208 -21.98198608 165.72163208 -22.72875977 164.48120117 C-39.9443458 135.31279538 -44.29121896 101.84539032 -36.17114258 68.96362305 C-29.94684109 45.41070052 -19.39542696 23.85208586 -4 5 C-2.6658353 3.33399877 -1.33221771 1.66755855 0 0 Z M15 163 C15 164.65 15 166.3 15 168 C15.33 168 15.66 168 16 168 C16 166.35 16 164.7 16 163 C15.67 163 15.34 163 15 163 Z M15 172 C16 174 16 174 16 174 Z " fill="#FFFFFF" transform="translate(285,0)"/>
<path d="M0 0 C-0.1846582 0.52932129 -0.36931641 1.05864258 -0.55957031 1.60400391 C-1.97897531 5.75490684 -3.26834171 9.89855709 -4.359375 14.1484375 C-4.58882812 15.00824219 -4.81828125 15.86804688 -5.0546875 16.75390625 C-5.52304183 18.5194442 -5.97059817 20.29061529 -6.3984375 22.06640625 C-8.17003202 28.50060392 -8.17003202 28.50060392 -12.20703125 30.9296875 C-14.08455078 31.45949219 -14.08455078 31.45949219 -16 32 C-17.28274194 32.44515396 -18.56267086 32.89848637 -19.83984375 33.359375 C-20.50137451 33.58383301 -21.16290527 33.80829102 -21.84448242 34.03955078 C-56.85962331 45.92501211 -89.3638383 65.60303519 -115.18359375 92.18359375 C-117 94 -117 94 -119.625 96.0625 C-122.46567815 98.37989533 -124.70282354 100.98174545 -127.07421875 103.76953125 C-128.33705565 105.23216791 -129.63091857 106.66869813 -130.95703125 108.07421875 C-143.34450781 121.24309458 -153.61540891 136.59064471 -163 152 C-163.41701172 152.68288086 -163.83402344 153.36576172 -164.26367188 154.06933594 C-196.86527405 208.21037419 -204.91787757 272.10970245 -198 334 C-204.01872541 336.76650185 -209.94034104 336.00395518 -216.375 335.625 C-217.49261719 335.56828125 -218.61023438 335.5115625 -219.76171875 335.453125 C-222.50851688 335.31226356 -225.25431568 335.16091224 -228 335 C-233.08449857 322.79720342 -231.24251368 307.29974038 -231.25 294.3125 C-231.25067474 293.26198456 -231.25134949 292.21146912 -231.25204468 291.12911987 C-231.23613593 275.54048068 -230.80971529 260.37323551 -228 245 C-227.75056641 243.56551514 -227.75056641 243.56551514 -227.49609375 242.10205078 C-223.00818013 216.79936003 -215.17789885 192.56150103 -205 169 C-204.649375 168.18821289 -204.29875 167.37642578 -203.9375 166.54003906 C-196.70266858 150.02851463 -187.27531783 134.77643659 -177 120 C-176.50097168 119.28166992 -176.00194336 118.56333984 -175.48779297 117.82324219 C-166.74429639 105.31252919 -157.58607907 93.16382485 -146.5546875 82.5546875 C-144.86455958 80.86455958 -143.34898869 79.08055351 -141.8125 77.25 C-133.11109796 67.21438298 -122.56405652 58.96965635 -112 51 C-111.33258789 50.49210937 -110.66517578 49.98421875 -109.97753906 49.4609375 C-80.39303859 27.06222945 -46.96554609 10.55479138 -11.125 0.875 C-10.34012207 0.66238525 -9.55524414 0.44977051 -8.74658203 0.23071289 C-3.38242798 -1.12747599 -3.38242798 -1.12747599 0 0 Z " fill="#FFFFFF" transform="translate(231,35)"/>
<path d="M0 0 C27.97795754 9.42183431 54.36765291 23.2920234 77.87939453 41.15844727 C78.73259277 41.80547607 78.73259277 41.80547607 79.60302734 42.46557617 C97.01235699 55.74807029 113.99200435 70.13421237 127.87939453 87.15844727 C128.49814453 87.90650635 128.49814453 87.90650635 129.12939453 88.66967773 C141.2414737 103.34295698 152.15433701 118.80444116 161.87939453 135.15844727 C162.49379395 136.18760254 162.49379395 136.18760254 163.12060547 137.23754883 C187.84805691 179.0676716 201.50006904 228.6751562 202.87939453 277.15844727 C202.90130859 277.91029297 202.92322266 278.66213867 202.94580078 279.43676758 C203.7735589 313.58178981 203.7735589 313.58178981 199.87939453 329.15844727 C189.97939453 329.15844727 180.07939453 329.15844727 169.87939453 329.15844727 C169.87939453 323.93509639 169.87983477 319.0705749 170.31689453 313.92797852 C170.40745117 312.80665527 170.49800781 311.68533203 170.59130859 310.5300293 C170.73391113 308.76828369 170.73391113 308.76828369 170.87939453 306.97094727 C174.45479508 259.27610058 167.1658489 212.65834897 146.87939453 169.15844727 C146.56035156 168.46138672 146.24130859 167.76432617 145.91259766 167.04614258 C137.49144235 148.77063323 126.35867435 131.89807947 113.87939453 116.15844727 C113.07630859 115.14266602 112.27322266 114.12688477 111.44580078 113.08032227 C98.55204934 97.08045046 84.22607036 81.67161062 67.87939453 69.15844727 C66.90228516 68.37598633 65.92517578 67.59352539 64.91845703 66.78735352 C43.61313282 49.81384491 19.67712856 37.05371034 -5.96826172 27.96313477 C-6.84538818 27.64618652 -7.72251465 27.32923828 -8.6262207 27.00268555 C-11.07416145 26.13313072 -11.07416145 26.13313072 -13.46069336 25.59155273 C-16.49028265 24.77798459 -18.64708701 23.97962123 -20.25219727 21.19604492 C-21.16094748 18.66169623 -21.82597273 16.15610844 -22.43310547 13.53344727 C-22.886264 11.79092937 -23.3406842 10.04873909 -23.79638672 8.30688477 C-24.00859863 7.45578125 -24.22081055 6.60467773 -24.43945312 5.7277832 C-25.47874183 1.8075415 -26.7805564 -2.01533702 -28.12060547 -5.84155273 C-21.50293966 -9.15038564 -6.59842815 -2.14084375 0 0 Z " fill="#FFFFFF" transform="translate(369.12060546875,40.841552734375)"/>
<path d="M0 0 C4.99617525 3.93016727 8.80140021 7.96115332 12.3125 13.25 C13.0079895 14.28229736 13.0079895 14.28229736 13.7175293 15.33544922 C35.14181817 47.68456213 48.03789596 86.48406755 40.375 125.5 C37.23002433 139.94834628 31.83872574 156.52145336 22.28341675 168.07568359 C16.6425547 175.07392103 15.992515 180.63001146 16.09765625 189.4453125 C16.08536484 190.69633759 16.07307343 191.94736267 16.06040955 193.23629761 C16.03417838 196.52804575 16.03752376 199.8179371 16.05578613 203.10968018 C16.06702115 206.48212522 16.03856696 209.8542249 16.01367188 213.2265625 C15.97294262 219.81798617 15.97126553 226.40853251 16 233 C15.67 233 15.34 233 15 233 C15.00222061 232.26737442 15.00444122 231.53474884 15.00672913 230.77992249 C15.10223952 197.6103896 15.14254965 164.43845408 14.73654175 131.27072144 C14.70272052 128.48764087 14.67534847 125.70461961 14.65383911 122.92141724 C14.60517158 102.75178487 14.60517158 102.75178487 11 83 C10.79109131 82.19248291 10.58218262 81.38496582 10.36694336 80.55297852 C8.05864868 72.04047142 4.93023423 63.89391726 1 56 C-8.74176935 77.32785425 -12.0655003 96.62046881 -12.31640625 119.9453125 C-12.33701809 121.56770302 -12.35801553 123.19008869 -12.37937927 124.81246948 C-12.43416378 129.05049669 -12.48376248 133.28856879 -12.53222656 137.52667236 C-12.58276335 141.86417563 -12.6382802 146.20161496 -12.69335938 150.5390625 C-12.80040608 159.02598736 -12.90196622 167.51296626 -13 176 C-16.37478431 174.8750719 -16.66547712 174.41483373 -18.453125 171.52734375 C-19.12976196 170.43740112 -19.12976196 170.43740112 -19.82006836 169.32543945 C-20.2919458 168.53741943 -20.76382324 167.74939941 -21.25 166.9375 C-21.98198608 165.72163208 -21.98198608 165.72163208 -22.72875977 164.48120117 C-39.9443458 135.31279538 -44.29121896 101.84539032 -36.17114258 68.96362305 C-29.94684109 45.41070052 -19.39542696 23.85208586 -4 5 C-2.6658353 3.33399877 -1.33221771 1.66755855 0 0 Z " fill="#548460" transform="translate(285,0)"/>
<path d="M0 0 C1.76116866 0.01493488 3.52237072 0.02631601 5.28358459 0.03430176 C9.90240454 0.06473876 14.51918776 0.14322543 19.13720703 0.23193359 C23.85616506 0.3140095 28.57545467 0.3503594 33.29492188 0.390625 C42.5425579 0.47623075 51.78868723 0.61263272 61.03515625 0.78125 C61.05010437 2.53439765 61.06074507 4.28758237 61.06958008 6.04077148 C61.07597 7.01707016 61.08235992 7.99336884 61.08894348 8.99925232 C61.02308069 12.40582554 60.50753666 15.53115218 59.72265625 18.84375 C59.47902344 19.92785156 59.23539063 21.01195312 58.984375 22.12890625 C58.03515625 24.78125 58.03515625 24.78125 55.03515625 26.78125 C52.01405973 26.96616553 49.0863883 27.03331923 46.06567383 27.00830078 C45.14840012 27.00859283 44.2311264 27.00888489 43.28605652 27.00918579 C40.25050435 27.00779111 37.21519685 26.99222333 34.1796875 26.9765625 C32.07647333 26.97283286 29.97325742 26.96998566 27.87004089 26.96798706 C22.33142306 26.96034673 16.79290993 26.94069475 11.2543335 26.9185791 C5.60381487 26.89812932 -0.04672066 26.8889872 -5.69726562 26.87890625 C-16.78650437 26.85744928 -27.87566535 26.82330847 -38.96484375 26.78125 C-37.6538034 24.0862002 -36.36017193 21.87345019 -34.390625 19.609375 C-33.88724609 19.02671875 -33.38386719 18.4440625 -32.86523438 17.84375 C-32.07922852 16.9465625 -32.07922852 16.9465625 -31.27734375 16.03125 C-30.77267578 15.44859375 -30.26800781 14.8659375 -29.74804688 14.265625 C-28.72981109 13.09162875 -27.69684921 11.93022182 -26.64865112 10.78289795 C-24.92564436 8.85005293 -24.92564436 8.85005293 -23.74893188 6.69708252 C-18.2046454 -1.8345551 -9.04404977 -0.22517416 0 0 Z " fill="#548460" transform="translate(453.96484375,343.21875)"/>
<path d="M0 0 C10.14438931 -0.23229858 20.28814026 -0.40968026 30.43465328 -0.51812172 C35.1469295 -0.57018583 39.8573788 -0.64072546 44.56860352 -0.75439453 C49.12049184 -0.86352455 53.67063022 -0.92293718 58.22372627 -0.94877243 C59.9554149 -0.96716753 61.68701385 -1.00309315 63.41795158 -1.05730057 C76.96374384 -1.4644121 76.96374384 -1.4644121 82.02789307 2.17756653 C84.30152446 4.6779372 86.16880021 7.16603155 88 10 C88.89869676 11.105123 89.81024199 12.20011106 90.7421875 13.27734375 C91.44601563 14.15519531 92.14984375 15.03304688 92.875 15.9375 C95.67348261 19.4451215 95.67348261 19.4451215 98.7578125 22.69140625 C100 24 100 24 100 26 C87.79579945 26.09257494 75.59168207 26.16370148 63.38720226 26.20724869 C57.72049265 26.22814647 52.05402278 26.25650433 46.38745117 26.30175781 C40.92152352 26.34513705 35.45582684 26.36912059 29.98974037 26.37950897 C27.90165888 26.38691458 25.81359039 26.40137554 23.72560692 26.42292023 C20.80661824 26.4518487 17.88859078 26.45596041 14.96948242 26.45410156 C13.66720703 26.47567322 13.66720703 26.47567322 12.33862305 26.49768066 C6.50006067 26.45730072 6.50006067 26.45730072 3.99873352 24.16986084 C2.65123637 21.24227182 1.96380031 18.40656659 1.3125 15.25 C1.06113281 14.07953125 0.80976562 12.9090625 0.55078125 11.703125 C-0.04411541 7.70339428 -0.03688752 4.03826833 0 0 Z " fill="#548460" transform="translate(56,344)"/>
<path d="M0 0 C1 3 1 3 -0.1171875 5.93359375 C-11.06451003 27.75525666 -26.55017775 43.87513201 -50 52 C-59.96809466 54.9547121 -70.3041463 55.15206682 -80.625 55.0625 C-81.62917969 55.05798828 -82.63335937 55.05347656 -83.66796875 55.04882812 C-86.11204471 55.03718967 -88.5559882 55.0208424 -91 55 C-89.16701315 44.65912584 -82.05388761 34.96370986 -73.8671875 28.54296875 C-69.86479864 25.74725934 -65.66903706 23.98455425 -61.125 22.25 C-60.26640381 21.91419922 -59.40780762 21.57839844 -58.52319336 21.23242188 C-50.53369387 18.13778204 -42.46981279 15.24620219 -34.39819336 12.37402344 C-26.4009188 9.52576382 -18.46058996 6.54780192 -10.54711914 3.47460938 C-9.74137451 3.16330078 -8.93562988 2.85199219 -8.10546875 2.53125 C-7.05588989 2.12229492 -7.05588989 2.12229492 -5.98510742 1.70507812 C-4.00863258 1.00306615 -2.04211311 0.47356663 0 0 Z " fill="#548460" transform="translate(442,277)"/>
<path d="M0 0 C6.81063192 1.96814531 13.48893592 4.17839081 20.14453125 6.6171875 C21.07617599 6.95622101 22.00782074 7.29525452 22.96769714 7.64456177 C24.92532011 8.35757714 26.8824527 9.07194018 28.83911133 9.78759766 C31.79332128 10.86798612 34.74905274 11.9441212 37.70507812 13.01953125 C43.14160474 14.99984777 48.57253164 16.99500127 54 19 C54.70495605 19.25956482 55.40991211 19.51912964 56.13623047 19.78656006 C57.93295575 20.45049595 59.72639549 21.12330486 61.51953125 21.796875 C62.45772705 22.1484668 63.39592285 22.50005859 64.36254883 22.86230469 C78.37368423 28.9061713 86.52034389 38.60310061 93 52 C93 52.99 93 53.98 93 55 C67.01674427 55.23314985 42.76517745 54.06622332 23.07470703 35.13183594 C21.70247323 33.76850362 20.35072627 32.38464406 19 31 C18.26136719 30.27039063 17.52273437 29.54078125 16.76171875 28.7890625 C9.09167326 20.77647129 3.37265132 10.53953537 0 0 Z " fill="#548460" transform="translate(127,277)"/>
<path d="M0 0 C1.62330008 0.00798685 3.24661625 0.01315811 4.86993408 0.01564026 C8.2629768 0.02785539 11.65471935 0.06274839 15.04736328 0.1159668 C19.40111542 0.18404042 23.75395187 0.21281827 28.108181 0.22695827 C32.25974258 0.24206246 36.41107584 0.27650133 40.5625 0.3125 C41.35639885 0.31777647 42.1502977 0.32305294 42.96825409 0.3284893 C45.20667054 0.34688961 47.44443605 0.37902583 49.68261719 0.41577148 C51.59406525 0.4407798 51.59406525 0.4407798 53.54412842 0.46629333 C56.515625 0.75390625 56.515625 0.75390625 58.515625 2.75390625 C58.95856042 5.73358201 58.83976928 8.74502491 58.828125 11.75390625 C58.84423828 12.58664063 58.86035156 13.419375 58.87695312 14.27734375 C58.87759766 15.07398438 58.87824219 15.870625 58.87890625 16.69140625 C58.88188721 17.42230469 58.88486816 18.15320313 58.88793945 18.90625 C58.515625 20.75390625 58.515625 20.75390625 55.515625 22.75390625 C52.96882629 22.99200439 52.96882629 22.99200439 49.88598633 22.97753906 C48.15322197 22.97829437 48.15322197 22.97829437 46.38545227 22.97906494 C45.13547958 22.97179382 43.8855069 22.96452271 42.59765625 22.95703125 C40.63191529 22.96488002 38.66617372 22.97276471 36.70044231 22.98272324 C31.85414897 23.00531183 27.00814654 23.00964664 22.16186523 22.98388672 C19.44432747 22.97034846 16.72767823 22.97277641 14.01017761 22.99237061 C11.45368195 23.01011775 8.89689128 23.00464769 6.3405304 22.97296143 C-1.55223376 23.0613448 -5.74778151 24.34357611 -11.484375 29.75390625 C-13.98934504 31.00639127 -15.69290774 30.86765031 -18.4921875 30.8515625 C-19.47832031 30.84833984 -20.46445313 30.84511719 -21.48046875 30.84179688 C-22.51300781 30.83341797 -23.54554687 30.82503906 -24.609375 30.81640625 C-26.16978516 30.80963867 -26.16978516 30.80963867 -27.76171875 30.80273438 C-30.33599462 30.79092577 -32.91015646 30.774457 -35.484375 30.75390625 C-33.34359908 25.39847986 -30.74740277 20.62621428 -27.671875 15.75390625 C-27.25873047 15.08101562 -26.84558594 14.408125 -26.41992188 13.71484375 C-26.00162109 13.04710937 -25.58332031 12.379375 -25.15234375 11.69140625 C-24.78391357 11.10230469 -24.4154834 10.51320312 -24.03588867 9.90625 C-23.2678894 8.84083984 -23.2678894 8.84083984 -22.484375 7.75390625 C-22.17954193 7.167267 -21.87470886 6.58062775 -21.56063843 5.97621155 C-16.70883581 -1.71025543 -8.05090863 -0.15932916 0 0 Z " fill="#548460" transform="translate(117.484375,179.24609375)"/>
<path d="M0 0 C2.93353271 -0.40786743 2.93353271 -0.40786743 6.74121094 -0.45166016 C7.43412231 -0.46334229 8.12703369 -0.47502441 8.84094238 -0.48706055 C11.13889282 -0.5207391 13.43619925 -0.53139401 15.734375 -0.5390625 C17.3314029 -0.55123993 18.92842848 -0.56372583 20.52545166 -0.57650757 C23.8780225 -0.59901219 27.23036566 -0.6085403 30.58300781 -0.61083984 C34.87212206 -0.61611401 39.15933114 -0.66737346 43.4479332 -0.73035622 C46.74920022 -0.77130176 50.05001096 -0.78048265 53.35150909 -0.78095627 C54.93196906 -0.78633281 56.51243417 -0.80316484 58.09264374 -0.83180618 C70.40579982 -1.0362968 70.40579982 -1.0362968 74.22512817 1.44642639 C75.78630911 3.22194139 76.89677257 4.91531186 78 7 C78.5882959 7.81686279 79.1765918 8.63372559 79.78271484 9.4753418 C81.32295177 11.87363549 82.85676865 14.27519908 84.375 16.6875 C84.92027344 17.52861328 85.46554687 18.36972656 86.02734375 19.23632812 C86.54167969 20.04908203 87.05601562 20.86183594 87.5859375 21.69921875 C88.0504834 22.42971436 88.5150293 23.16020996 88.99365234 23.9128418 C90 26 90 26 90 30 C86.52172848 30.20588182 83.04504632 30.32846181 79.5625 30.4375 C78.58861328 30.49615234 77.61472656 30.55480469 76.61132812 30.61523438 C75.1659668 30.64907227 75.1659668 30.64907227 73.69140625 30.68359375 C72.81685791 30.72025146 71.94230957 30.75690918 71.04125977 30.79467773 C67.64821808 29.90807978 66.55553049 28.82132433 63.98779297 26.51147461 C58.18755141 21.77418322 52.75177302 22.02914334 45.50390625 22.1328125 C44.23401352 22.12289276 42.96412079 22.11297302 41.65574646 22.10275269 C38.30682334 22.0819584 34.96071173 22.0903136 31.61199951 22.11407471 C26.87277783 22.13933814 22.13345647 22.10522364 17.39427185 22.08297729 C14.87578158 22.07464467 12.35724152 22.07546999 9.83876038 22.08621216 C8.14075539 22.09018509 8.14075539 22.09018509 6.40844727 22.09423828 C5.40967056 22.09980743 4.41089386 22.10537659 3.3818512 22.1111145 C1 22 1 22 -1 21 C-2.35035219 17.43059771 -2.16766878 13.70939851 -2.1875 9.9375 C-2.20167969 8.70902344 -2.21585937 7.48054687 -2.23046875 6.21484375 C-2 3 -2 3 0 0 Z " fill="#548460" transform="translate(398,180)"/>
<path d="M0 0 C0.79407257 -0.00953201 1.58814514 -0.01906403 2.40628052 -0.02888489 C3.6783284 -0.02751778 3.6783284 -0.02751778 4.97607422 -0.02612305 C5.85351288 -0.03040817 6.73095154 -0.0346933 7.63497925 -0.03910828 C9.48581073 -0.04484213 11.33666474 -0.0453588 13.1875 -0.04101562 C16.02756751 -0.03784536 18.86660343 -0.06136158 21.70654297 -0.08666992 C23.50471873 -0.08894189 25.30289731 -0.08964689 27.10107422 -0.08862305 C27.9531546 -0.09783279 28.80523499 -0.10704254 29.68313599 -0.11653137 C32.0703125 -0.09765625 32.0703125 -0.09765625 35.90576172 0.2746582 C39.97567221 6.37952394 39.95007599 17.11364605 38.90576172 24.2746582 C35.41535918 26.60159323 34.16661263 26.49605969 30.05737305 26.40991211 C28.85635452 26.3897403 27.655336 26.36956848 26.41792297 26.3487854 C25.12098007 26.31658905 23.82403717 26.2843927 22.48779297 26.2512207 C21.146883 26.22504802 19.80595505 26.19978145 18.4650116 26.17538452 C14.93845861 26.10878748 11.4122842 26.02988359 7.88604736 25.94842529 C4.28664666 25.8674522 0.68702411 25.79810517 -2.91259766 25.7277832 C-9.9734052 25.5881277 -17.03387838 25.43547123 -24.09423828 25.2746582 C-22.3863274 15.68508459 -15.94210508 7.82479905 -8.09423828 2.2746582 C-5.27584766 0.66070229 -3.24232136 0.02147341 0 0 Z " fill="#548460" transform="translate(477.09423828125,290.725341796875)"/>
<path d="M0 0 C3.00555413 -0.36669445 5.79831141 -0.54033611 8.8125 -0.57421875 C10.13773682 -0.59631157 10.13773682 -0.59631157 11.48974609 -0.61885071 C13.36595997 -0.6428425 15.24230021 -0.65823529 17.11865234 -0.66577148 C19.96286649 -0.68721997 22.80152069 -0.7672427 25.64453125 -0.84960938 C40.90461088 -1.0765094 40.90461088 -1.0765094 47.0625 3.71484375 C49.2578125 5.9128418 49.2578125 5.9128418 51 8 C51.804375 8.93328125 52.60875 9.8665625 53.4375 10.828125 C53.953125 11.62734375 54.46875 12.4265625 55 13.25 C55.53625 14.05953125 56.0725 14.8690625 56.625 15.703125 C57.305625 16.84007812 57.305625 16.84007812 58 18 C58.4125 18.67546875 58.825 19.3509375 59.25 20.046875 C60 22 60 22 59 26 C28.805 25.505 28.805 25.505 -2 25 C-2 3 -2 3 0 0 Z " fill="#548460" transform="translate(58,291)"/>
<path d="M0 0 C1.01394333 0.00848969 2.02788666 0.01697937 3.07255554 0.02572632 C6.30336851 0.05924882 9.53166336 0.13452914 12.76171875 0.2109375 C14.95504202 0.24103845 17.1484045 0.26841402 19.34179688 0.29296875 C24.71179314 0.35903566 30.08032605 0.45937201 35.44921875 0.5859375 C37.5485375 4.70340374 39.26398363 8.66793942 40.63671875 13.0859375 C40.98089844 14.16875 41.32507813 15.2515625 41.6796875 16.3671875 C42.44758303 19.57909571 42.50567277 22.30071454 42.44921875 25.5859375 C37.99157745 25.79126518 33.53516873 25.91425341 29.07421875 26.0234375 C27.19669922 26.11141602 27.19669922 26.11141602 25.28125 26.20117188 C17.39996673 26.3455933 12.74288766 25.46866111 6.65356445 20.32763672 C-0.03471098 15.04309171 -9.33435903 13.79376746 -17.55078125 12.5859375 C-14.72879827 1.81109339 -10.44042046 -0.32978385 0 0 Z " fill="#548460" transform="translate(465.55078125,237.4140625)"/>
<path d="M0 0 C1.35226936 -0.038619 1.35226936 -0.038619 2.7318573 -0.07801819 C6.8738355 -0.16208467 11.01562736 -0.22808487 15.15820312 -0.27441406 C17.34176685 -0.30602702 19.52515961 -0.35375291 21.70800781 -0.41796875 C24.85457992 -0.50931546 27.99805326 -0.54804561 31.14575195 -0.57592773 C32.11784103 -0.61408096 33.08993011 -0.65223419 34.09147644 -0.69154358 C40.68686963 -0.67268046 40.68686963 -0.67268046 43.75015259 1.93630981 C46.68187813 5.62714334 47.7590332 7.40946523 47.7590332 12.24047852 C46.72004883 12.4712207 45.68106445 12.70196289 44.6105957 12.93969727 C31.07191013 15.94393633 31.07191013 15.94393633 19.5402832 23.30004883 C16.11921827 25.68686625 14.27930213 25.70660215 10.14575195 25.63110352 C8.89858398 25.61821289 7.65141602 25.60532227 6.36645508 25.59204102 C5.07288086 25.55852539 3.77930664 25.52500977 2.4465332 25.49047852 C1.13362305 25.47243164 -0.17928711 25.45438477 -1.53198242 25.43579102 C-4.76905168 25.38870637 -8.00463732 25.32294893 -11.2409668 25.24047852 C-10.77652708 19.25128576 -9.7490109 13.89742563 -7.7409668 8.24047852 C-7.51538086 7.5740332 -7.28979492 6.90758789 -7.05737305 6.22094727 C-4.96311832 0.13645572 -4.96311832 0.13645572 0 0 Z " fill="#548460" transform="translate(74.240966796875,237.759521484375)"/>
<path d="M0 0 C6.19157302 4.3722031 11.82022321 9.55112248 14 17 C14.29947586 20.23433934 14.44656348 22.10687304 13 25 C-3.17 25 -19.34 25 -36 25 C-31.44588745 18.16883117 -31.44588745 18.16883117 -28.375 15.125 C-27.78460938 14.52945313 -27.19421875 13.93390625 -26.5859375 13.3203125 C-25 12 -25 12 -23 12 C-23 11.34 -23 10.68 -23 10 C-20.93095035 8.22610722 -18.86238831 6.5715553 -16.6875 4.9375 C-15.79514648 4.24817383 -15.79514648 4.24817383 -14.88476562 3.54492188 C-9.99767689 -0.17363391 -6.00797703 -2.35628839 0 0 Z " fill="#548460" transform="translate(159,128)"/>
<path d="M0 0 C10.21753827 3.83157685 17.77947358 11.86843133 25.5 19.3125 C26.45390625 20.21871094 27.4078125 21.12492187 28.390625 22.05859375 C30.5 24.3125 30.5 24.3125 30.5 26.3125 C23.68238106 26.3377689 16.86477411 26.35533244 10.04711914 26.36743164 C7.72582549 26.37247333 5.40453503 26.37930651 3.08325195 26.38793945 C-0.24528795 26.40001225 -3.57378602 26.40572979 -6.90234375 26.41015625 C-8.46951393 26.41789818 -8.46951393 26.41789818 -10.06834412 26.42579651 C-11.02926468 26.42587204 -11.99018524 26.42594757 -12.98022461 26.42602539 C-13.83071884 26.428246 -14.68121307 26.43046661 -15.55747986 26.43275452 C-17.5 26.3125 -17.5 26.3125 -18.5 25.3125 C-19.40878386 20.15889029 -18.832356 16.1406939 -16.0625 11.6875 C-11.95455674 6.1844062 -7.11893252 0.63561898 0 0 Z " fill="#548460" transform="translate(417.5,126.6875)"/>
<path d="M0 0 C6.52014518 6.05972491 8.2711262 13.69583456 9.25 22.3125 C9.27758243 23.97893841 9.28602762 25.64622278 9.25 27.3125 C-3.30249177 21.25378767 -15.22341391 14.72279708 -26.5625 6.5625 C-27.55894531 5.84578125 -28.55539063 5.1290625 -29.58203125 4.390625 C-30.29746094 3.70484375 -31.01289063 3.0190625 -31.75 2.3125 C-31.75 0.9925 -31.75 -0.3275 -31.75 -1.6875 C-20.6523831 -6.69230762 -10.04642499 -7.86148821 0 0 Z " fill="#548460" transform="translate(216.75,103.6875)"/>
<path d="M0 0 C0.66 0.99 1.32 1.98 2 3 C-10.78660606 13.41453249 -24.61276646 22.86544213 -40 29 C-40.71486113 19.88552054 -38.55281213 10.49888952 -32.625 3.375 C-23.34674447 -6.04203286 -11.29562394 -5.60098102 0 0 Z " fill="#548460" transform="translate(386,102)"/>
<path d="M0 0 C1.93166016 0.01740234 1.93166016 0.01740234 3.90234375 0.03515625 C5.19269531 0.04417969 6.48304688 0.05320312 7.8125 0.0625 C8.81152344 0.07410156 9.81054688 0.08570313 10.83984375 0.09765625 C9.2126301 3.81194828 6.89313889 6.71406676 4.33984375 9.84765625 C3.54578125 10.8325 2.75171875 11.81734375 1.93359375 12.83203125 C1.24265625 13.5796875 0.55171875 14.32734375 -0.16015625 15.09765625 C-0.82015625 15.09765625 -1.48015625 15.09765625 -2.16015625 15.09765625 C-2.16015625 15.75765625 -2.16015625 16.41765625 -2.16015625 17.09765625 C-6.12015625 17.09765625 -10.08015625 17.09765625 -14.16015625 17.09765625 C-12.43341802 12.78081067 -10.8250072 10.01052322 -8.09765625 6.34765625 C-7.38480469 5.3834375 -6.67195313 4.41921875 -5.9375 3.42578125 C-3.40244951 0.10514368 -3.40244951 0.10514368 0 0 Z " fill="#548460" transform="translate(379.16015625,352.90234375)"/>
<path d="M0 0 C4.91747972 -0.89279891 9.11661789 -1.18553181 14 0 C18.50238979 3.6294502 21.42732126 8.90799301 24 14 C24 14.99 24 15.98 24 17 C20.41903562 17.83892441 17.57239749 17.94284761 14 17 C8.26035653 12.23684133 3.65849294 6.5080122 0 0 Z " fill="#548460" transform="translate(182,353)"/>
<path d="M0 0 C0.99386719 0.02707031 1.98773438 0.05414063 3.01171875 0.08203125 C4.15060547 0.13423828 4.15060547 0.13423828 5.3125 0.1875 C4.66065769 3.95568431 2.93979717 6.62730354 0.875 9.8125 C0.25753906 10.77414062 -0.35992187 11.73578125 -0.99609375 12.7265625 C-2.6875 15.1875 -2.6875 15.1875 -4.6875 17.1875 C-6.8515625 17.3828125 -6.8515625 17.3828125 -9.3125 17.3125 C-10.12976563 17.29445313 -10.94703125 17.27640625 -11.7890625 17.2578125 C-12.41554688 17.23460937 -13.04203125 17.21140625 -13.6875 17.1875 C-14.0175 16.5275 -14.3475 15.8675 -14.6875 15.1875 C-13.578125 12.47265625 -13.578125 12.47265625 -11.9375 9.25 C-11.40640625 8.18910156 -10.8753125 7.12820313 -10.328125 6.03515625 C-7.37922837 0.91671425 -6.01546701 -0.2123106 0 0 Z " fill="#548460" transform="translate(346.6875,352.8125)"/>
<path d="M0 0 C4.24006966 -0.82681358 7.79667364 -1.11234368 12 0 C16.49486578 4.8013339 20 10.30060913 20 17 C16.778165 17.73833719 14.20212373 17.89718947 11 17 C6.08831592 12.16426979 2.97629729 6.15344901 0 0 Z " fill="#548460" transform="translate(219,353)"/>
</svg>
