<?xml version="1.0" encoding="UTF-8"?>
<svg version="1.1" xmlns="http://www.w3.org/2000/svg" width="622" height="777">
<path d="M0 0 C4.99617525 3.93016727 8.80140021 7.96115332 12.3125 13.25 C12.77615967 13.93819824 13.23981934 14.62639648 13.7175293 15.33544922 C35.14181817 47.68456213 48.03789596 86.48406755 40.375 125.5 C37.23764755 139.9133244 31.86200171 156.56375297 22.28341675 168.06030273 C16.52761421 175.16423748 15.99465048 180.93044294 16.09765625 189.8828125 C16.08536484 191.17822968 16.07307343 192.47364685 16.06040955 193.80831909 C16.02843948 197.21824924 16.03753002 200.62682256 16.05578613 204.0368042 C16.06701694 207.52989038 16.03857092 211.02264259 16.01367188 214.515625 C15.97074038 221.34393196 15.97127309 228.17162796 16 235 C16.66 235 17.32 235 18 235 C18.37125 234.17048828 18.37125 234.17048828 18.75 233.32421875 C25.42472966 220.91339328 37.10593613 211.69261492 48.99853516 204.62475586 C53.4327116 201.86536659 54.78840413 200.01722143 56 195 C56.11444076 192.28552094 56.13744501 189.675453 56.0625 186.96875 C56.05356876 185.42058499 56.0471342 183.87240392 56.04296875 182.32421875 C56.02871007 179.9066343 55.99980076 177.49327336 55.92822266 175.07666016 C55.56425716 161.6208831 55.56425716 161.6208831 59.03149414 157.70654297 C61.63478466 156.12589412 64.14122879 155.0381218 67 154 C68.32148687 153.3137303 69.63414761 152.60995304 70.93359375 151.8828125 C72.08988281 151.30273438 73.24617187 150.72265625 74.4375 150.125 C75.61183594 149.52945313 76.78617188 148.93390625 77.99609375 148.3203125 C81 147 81 147 84 147 C84.07649331 153.93759035 84.12878497 160.87507065 84.16479492 167.81298828 C84.17981778 170.16980046 84.20024196 172.52658498 84.22631836 174.88330078 C84.26298821 178.28424942 84.27979196 181.68482621 84.29296875 185.0859375 C84.30845261 186.12801361 84.32393646 187.17008972 84.33988953 188.2437439 C84.34296406 201.81609023 79.52107506 212.91444184 70.36328125 222.8828125 C66.91546452 225.97160038 63.04487474 227.99458697 59.00390625 230.21484375 C54.03190256 233.16959757 50.0747433 236.9252567 46 241 C45.50918945 241.48823242 45.01837891 241.97646484 44.51269531 242.47949219 C35.20442785 251.834156 27.43071315 262.11387307 20 273 C19.29528564 273.88961426 18.59057129 274.77922852 17.86450195 275.69580078 C15.47369455 279.93269844 15.39796218 283.11958608 15.390625 287.8984375 C15.37408875 288.73339752 15.35755249 289.56835754 15.34051514 290.42861938 C15.29219655 293.07748895 15.27070075 295.72578512 15.25 298.375 C15.22182672 300.17841401 15.19189739 301.9818015 15.16015625 303.78515625 C15.08644228 308.19005692 15.03676943 312.5946423 15 317 C15.66 317 16.32 317 17 317 C17.27529541 316.41460449 17.55059082 315.82920898 17.83422852 315.22607422 C18.95634598 313.0833586 20.17804322 311.29548776 21.65234375 309.3828125 C22.17578369 308.70065674 22.69922363 308.01850098 23.23852539 307.31567383 C23.79918701 306.59275146 24.35984863 305.8698291 24.9375 305.125 C25.81039673 303.99324341 25.81039673 303.99324341 26.70092773 302.83862305 C28.4637631 300.55633149 30.23177427 298.27811626 32 296 C32.96100669 294.75395961 33.92194933 293.50786982 34.8828125 292.26171875 C57.06122227 263.61945135 83.67258566 232.99896561 121.21875 226.4375 C125.65379091 225.92435477 129.97901295 225.89079546 134.4375 225.9375 C135.67790039 225.94426758 135.67790039 225.94426758 136.94335938 225.95117188 C138.96227146 225.96284189 140.98114574 225.98077282 143 226 C139.18208812 239.025817 133.25287376 250.06533554 124 260 C123.40960938 260.64453125 122.81921875 261.2890625 122.2109375 261.953125 C113.52568412 270.44707324 101.42265922 274.75719459 90 278.125 C83.31482912 280.10882429 78.02632831 281.97367169 73 287 C72.30390625 287.63421875 71.6078125 288.2684375 70.890625 288.921875 C64.98309259 294.50347459 60.14894361 300.80463264 55.29589844 307.28515625 C53.15494575 310.11824813 50.95118102 312.90112403 48.75 315.6875 C47.82658617 316.86179303 46.90341583 318.03627758 45.98046875 319.2109375 C44.43643912 321.17512185 42.89092817 323.13808269 41.34228516 325.09863281 C23.51643018 345.13110333 23.51643018 345.13110333 15.90234375 369.1640625 C15.9037587 370.07127045 15.90517365 370.97847839 15.90663147 371.91317749 C15.91223904 374.81715155 15.92479282 377.72104915 15.9375 380.625 C15.94251402 382.59114472 15.9470771 384.55729065 15.95117188 386.5234375 C15.96221094 391.3489879 15.97948065 396.17448097 16 401 C17.12905762 401.01458252 18.25811523 401.02916504 19.42138672 401.04418945 C23.65232362 401.1026212 27.88275301 401.17984724 32.11328125 401.26245117 C33.93643899 401.29549107 35.75969388 401.32358659 37.58300781 401.34643555 C53.90611431 401.55650839 66.83245547 403.15971474 79.3125 414.75 C87.2438997 423.13004453 90.18229779 433.58842371 90.625 444.875 C90.66077148 445.69419922 90.69654297 446.51339844 90.73339844 447.35742188 C90.83618893 449.90466811 90.92076987 452.45191977 91 455 C91.04302246 456.23218262 91.04302246 456.23218262 91.08691406 457.48925781 C91.16126821 459.82623692 91.21085861 462.16219151 91.25 464.5 C91.27143066 465.21140137 91.29286133 465.92280273 91.31494141 466.65576172 C91.34647271 471.44034449 91.34647271 471.44034449 89.95605469 473.6862793 C86.95212819 475.70376912 83.86988182 475.40805918 80.375 475.36328125 C79.2600415 475.36402901 79.2600415 475.36402901 78.12255859 475.36479187 C76.55238163 475.36245333 74.98220079 475.35273768 73.41210938 475.33618164 C71.00877358 475.31258614 68.60654721 475.31562226 66.203125 475.32226562 C64.67707672 475.31668872 63.15103311 475.30957877 61.625 475.30078125 C60.90618652 475.30169266 60.18737305 475.30260406 59.44677734 475.30354309 C55.7538727 475.2510669 54.15502174 475.10334783 51 473 C50.69198457 470.05312157 50.53287105 467.26385035 50.5 464.3125 C50.42948914 458.13272644 49.94708925 453.51134582 47 448 C44.32395355 446.66197677 42.25106812 446.87039276 39.2578125 446.8671875 C38.10925781 446.86589844 36.96070313 446.86460937 35.77734375 446.86328125 C34.57207031 446.86714844 33.36679687 446.87101562 32.125 446.875 C30.32869141 446.86919922 30.32869141 446.86919922 28.49609375 446.86328125 C27.34496094 446.86457031 26.19382812 446.86585938 25.0078125 446.8671875 C23.95223145 446.86831543 22.89665039 446.86944336 21.80908203 446.87060547 C19.34809721 446.98396562 17.35939069 447.36384894 15 448 C13.26328644 455.95273711 12.7118747 463.51779505 12.74121094 471.64404297 C12.7377063 472.85681412 12.73420166 474.06958527 12.73059082 475.31910706 C12.72335225 478.61006425 12.72496888 481.90085764 12.73134899 485.19181204 C12.73645285 488.65010485 12.73170609 492.10838762 12.72857666 495.56668091 C12.72495262 501.3647861 12.72969795 507.1628401 12.73925781 512.9609375 C12.75017025 519.65656387 12.74659036 526.35206868 12.735605 533.04769218 C12.72652422 538.81440929 12.72524979 544.58108987 12.73048234 550.34781182 C12.73359374 553.78458725 12.73403364 557.22130552 12.72740936 560.65807724 C12.72233833 564.48291044 12.73006141 568.30750856 12.74121094 572.13232422 C12.73513824 573.83270088 12.73513824 573.83270088 12.72894287 575.56742859 C12.73740234 577.13154732 12.73740234 577.13154732 12.74603271 578.7272644 C12.74678677 579.63016142 12.74754082 580.53305843 12.74831772 581.46331596 C13.14207708 585.43198262 14.17496566 588.17496566 17 591 C21.11767518 591.39800538 25.24088662 591.32904717 29.3762207 591.31567383 C31.42648614 591.31251696 33.47530405 591.3359576 35.52539062 591.36132812 C36.81509766 591.36197266 38.10480469 591.36261719 39.43359375 591.36328125 C40.62009521 591.36626221 41.80659668 591.36924316 43.02905273 591.37231445 C45.96007354 591.23655802 45.96007354 591.23655802 47.84790039 589.72729492 C50.24285572 586.13663822 50.12799598 582.57152477 50.1328125 578.3515625 C50.13474609 576.71960938 50.13474609 576.71960938 50.13671875 575.0546875 C50.13285156 573.92289063 50.12898437 572.79109375 50.125 571.625 C50.12886719 570.5009375 50.13273438 569.376875 50.13671875 568.21875 C50.13542969 567.12820313 50.13414062 566.03765625 50.1328125 564.9140625 C50.13112061 563.4283374 50.13112061 563.4283374 50.12939453 561.91259766 C49.9943708 558.87328981 49.55857174 555.98810919 49 553 C47.21142578 552.94392578 47.21142578 552.94392578 45.38671875 552.88671875 C43.820281 552.82105968 42.25387616 552.75461232 40.6875 552.6875 C39.90181641 552.66494141 39.11613281 552.64238281 38.30664062 552.61914062 C37.54931641 552.58369141 36.79199219 552.54824219 36.01171875 552.51171875 C35.31522217 552.48553467 34.61872559 552.45935059 33.90112305 552.43237305 C31.28071131 551.83641193 30.48192232 551.26810914 29 549 C28.71403073 546.36551981 28.60313572 543.97241208 28.63671875 541.33984375 C28.63597099 540.22132774 28.63597099 540.22132774 28.63520813 539.08021545 C28.63754639 537.5058424 28.64726045 535.93146545 28.66381836 534.35717773 C28.68744756 531.94285822 28.68437344 529.5296404 28.67773438 527.11523438 C28.68331004 525.5859309 28.69041922 524.05663208 28.69921875 522.52734375 C28.69830734 521.80336899 28.69739594 521.07939423 28.69645691 520.33348083 C28.76895437 515.23104563 28.76895437 515.23104563 31 513 C33.39099121 512.75276184 33.39099121 512.75276184 36.42773438 512.75708008 C37.56231079 512.75400345 38.69688721 512.75092682 39.86584473 512.74775696 C41.09605347 512.75494247 42.32626221 512.76212799 43.59375 512.76953125 C45.48015198 512.77021858 45.48015198 512.77021858 47.40466309 512.7709198 C50.0679261 512.77394558 52.73084515 512.78077475 55.39404297 512.79418945 C58.81064219 512.81117936 62.22709364 512.81500379 65.64373016 512.81424427 C68.8979181 512.81458133 72.15207495 512.82341867 75.40625 512.83203125 C76.63645874 512.83314407 77.86666748 512.8342569 79.13415527 512.83540344 C80.26873169 512.84178329 81.40330811 512.84816315 82.57226562 512.85473633 C83.57439087 512.85854813 84.57651611 512.86235992 85.60900879 512.86628723 C88 513 88 513 90 514 C90.1476581 518.26009332 90.28963178 522.52033494 90.42724609 526.78076172 C90.47434158 528.21733198 90.52275756 529.65385981 90.57275391 531.09033203 C91.40134235 554.98411709 90.93129763 578.88151242 90.53643799 602.77947998 C90.47470013 606.54176616 90.41519478 610.30408769 90.35546875 614.06640625 C90.23909178 621.37763929 90.12035642 628.68883127 90 636 C86.15042015 637.05643903 82.46746799 637.17872722 78.49609375 637.203125 C77.77639908 637.20882507 77.05670441 637.21452515 76.31520081 637.22039795 C74.79812072 637.22981895 73.28102043 637.23637037 71.76391602 637.24023438 C69.44186131 637.24998169 67.12067691 637.28104729 64.79882812 637.3125 C63.32292191 637.3190267 61.84700939 637.32427848 60.37109375 637.328125 C59.67729111 637.3404718 58.98348846 637.3528186 58.2686615 637.36553955 C55.36271479 637.35207176 53.46022819 637.33001531 51.05761719 635.60717773 C49.08200557 632.60499599 49.82847072 629.48776193 50 626 C49.00419922 626.83144531 49.00419922 626.83144531 47.98828125 627.6796875 C47.10527344 628.40414062 46.22226562 629.12859375 45.3125 629.875 C44.44238281 630.59429688 43.57226562 631.31359375 42.67578125 632.0546875 C33.32993279 638.84918755 19.56638523 638.08457215 8.5390625 636.50390625 C-3.81419036 633.69346183 -13.34156674 627.37839384 -20.390625 616.8671875 C-27.13192972 604.85719317 -27.15754722 591.17707928 -27.12939453 577.76000977 C-27.13202301 576.17866997 -27.13202301 576.17866997 -27.13470459 574.56538391 C-27.13907418 571.10737415 -27.13619705 567.64941647 -27.1328125 564.19140625 C-27.13348819 561.74128713 -27.13446041 559.29116808 -27.13571167 556.84104919 C-27.13718312 551.70107384 -27.13505649 546.5611159 -27.13037109 541.42114258 C-27.12585868 536.22679496 -27.12575851 531.03248228 -27.13037109 525.83813477 C-27.14536237 508.89165944 -27.11650961 491.94611834 -27 475 C-26.99026405 473.49093204 -26.99026405 473.49093204 -26.98033142 471.95137787 C-26.94282521 466.60808293 -26.88318738 461.26603875 -26.78292465 455.9235363 C-26.75638823 454.40335536 -26.73583546 452.88305446 -26.72217178 451.36270332 C-26.58622152 437.68630508 -24.0059864 425.0059864 -14 415 C-13.63138418 412.64245615 -13.63138418 412.64245615 -13.59838867 409.87036133 C-13.56303513 408.79776566 -13.52768158 407.72516998 -13.49125671 406.62007141 C-13.38856548 401.66256292 -13.29852835 396.70562236 -13.24487305 391.74731445 C-13.20695713 389.14692814 -13.14584453 386.54676527 -13.06030273 383.94750977 C-12.11963888 364.82083208 -12.11963888 364.82083208 -20.68876648 348.44270325 C-21.63644587 347.43715275 -22.59953086 346.44585496 -23.57885742 345.47109985 C-25.97901978 342.98656484 -27.94593374 340.21196523 -30 337.4375 C-30.81756382 336.37548249 -31.63755304 335.31532364 -32.4609375 334.2578125 C-32.87311523 333.72833008 -33.28529297 333.19884766 -33.70996094 332.65332031 C-40.41706566 324.0574624 -47.15393361 315.48584278 -54 307 C-55.07701172 305.66001953 -55.07701172 305.66001953 -56.17578125 304.29296875 C-58.42919868 301.5102512 -60.70809045 298.75107637 -63 296 C-63.7321875 295.10667969 -64.464375 294.21335937 -65.21875 293.29296875 C-65.9509375 292.43316406 -66.683125 291.57335937 -67.4375 290.6875 C-68.07558594 289.92824219 -68.71367187 289.16898437 -69.37109375 288.38671875 C-76.37390406 282.02904104 -84.47732615 278.86682233 -93.375 276.0625 C-114.06299829 269.15167047 -126.56073567 258.64760351 -136.5703125 238.90234375 C-138.59588555 234.60234153 -140.20197839 230.70412736 -141 226 C-111.14031192 225.08592792 -88.88839374 235.35804667 -67 255 C-65.62328125 256.19496094 -65.62328125 256.19496094 -64.21875 257.4140625 C-59.7591995 261.32288537 -55.65174136 265.32012208 -51.83203125 269.85546875 C-49.68630903 272.36719902 -47.43785871 274.76915184 -45.1875 277.1875 C-40.28221915 282.5722444 -35.85239525 288.2530749 -31.47021484 294.06201172 C-28.52951419 297.93834547 -25.54465892 301.78053469 -22.5625 305.625 C-21.65709473 306.79881226 -21.65709473 306.79881226 -20.73339844 307.99633789 C-20.16266602 308.73231201 -19.59193359 309.46828613 -19.00390625 310.2265625 C-18.49674072 310.88221191 -17.9895752 311.53786133 -17.46704102 312.21337891 C-16.06480091 313.92108287 -14.59033116 315.46795633 -13 317 C-12.8944321 311.70079966 -12.85695007 306.40665843 -12.87792969 301.10644531 C-12.87600333 299.31043814 -12.85664791 297.51435003 -12.81835938 295.71875 C-12.54285852 282.0049297 -14.81343286 274.22480505 -24 264 C-25.08605679 262.65453758 -26.16997116 261.30733721 -27.25 259.95703125 C-28.15990372 258.90297803 -29.07638783 257.85456216 -30 256.8125 C-30.50072021 256.23991455 -31.00144043 255.6673291 -31.51733398 255.07739258 C-32.52777926 253.92545615 -33.54126972 252.77618219 -34.55810547 251.62988281 C-35.91648785 250.09440012 -37.25767019 248.54375031 -38.59765625 246.9921875 C-45.54451645 239.08751931 -52.96087467 232.15730206 -62.1875 227 C-71.87782282 221.36394853 -77.5114341 212.52124811 -81 202 C-83.91242275 190.82980765 -83.22459383 179.19201512 -83.125 167.75 C-83.11494943 165.73307736 -83.10582726 163.71614988 -83.09765625 161.69921875 C-83.07580895 156.79935762 -83.04139364 151.89973339 -83 147 C-79.25153022 147.5159945 -76.19887066 148.15224634 -72.87109375 149.9609375 C-72.14599609 150.35023438 -71.42089844 150.73953125 -70.67382812 151.140625 C-69.93583984 151.54796875 -69.19785156 151.9553125 -68.4375 152.375 C-67.69564453 152.77460938 -66.95378906 153.17421875 -66.18945312 153.5859375 C-64.11653009 154.70823243 -62.05134218 155.83871418 -60 157 C-59.10571289 157.37608398 -58.21142578 157.75216797 -57.29003906 158.13964844 C-55 160 -55 160 -54.37231445 163.56591797 C-54.34469579 165.0410857 -54.34337089 166.5168956 -54.36328125 167.9921875 C-54.34771431 169.16661911 -54.34771431 169.16661911 -54.33183289 170.36477661 C-54.30211454 172.86862903 -54.30552709 175.37100294 -54.3125 177.875 C-54.30359274 180.37144042 -54.28756289 182.86748409 -54.2610321 185.36380005 C-54.24618079 186.91636541 -54.24227605 188.46908505 -54.25080872 190.021698 C-54.22931063 194.11642971 -53.93584538 197.35738073 -52 201 C-49.9736885 202.81599954 -49.9736885 202.81599954 -47.5 204.3125 C-35.49427174 212.31631884 -24.9214015 221.59548689 -16.375 233.28515625 C-15.09452919 235.12692287 -15.09452919 235.12692287 -13 236 C-13 216.2 -13 196.4 -13 176 C-13.99 175.67 -14.98 175.34 -16 175 C-17.23925781 173.48803711 -17.23925781 173.48803711 -18.453125 171.52734375 C-18.90421631 170.80071533 -19.35530762 170.07408691 -19.82006836 169.32543945 C-20.2919458 168.53741943 -20.76382324 167.74939941 -21.25 166.9375 C-21.98198608 165.72163208 -21.98198608 165.72163208 -22.72875977 164.48120117 C-39.9443458 135.31279538 -44.29121896 101.84539032 -36.17114258 68.96362305 C-29.94684109 45.41070052 -19.39542696 23.85208586 -4 5 C-2.6658353 3.33399877 -1.33221771 1.66755855 0 0 Z M15 163 C15 164.65 15 166.3 15 168 C15.33 168 15.66 168 16 168 C16 166.35 16 164.7 16 163 C15.67 163 15.34 163 15 163 Z M15 172 C16 174 16 174 16 174 Z " fill="#FFFFFF" transform="translate(301,0)"/>
<path d="M0 0 C13.86 0 27.72 0 42 0 C46.34740335 20.25740335 50.11872031 40.59722985 53.82053757 60.98023605 C54.48378391 64.63007353 55.14905926 68.27954014 55.81424427 71.9290247 C57.88374599 83.284644 59.94459168 94.64182183 62 106 C62.12969681 106.71660797 62.25939362 107.43321594 62.39302063 108.17153931 C63.91666856 116.59195725 65.43188317 125.01384049 66.9375 133.4375 C67.18531723 134.81801041 67.18531723 134.81801041 67.43814087 136.22640991 C67.88735704 138.73248047 68.33307106 141.23914278 68.77734375 143.74609375 C68.96836166 144.80869415 68.96836166 144.80869415 69.16323853 145.89276123 C69.64705855 148.6457861 70 151.19715675 70 154 C70.66 154 71.32 154 72 154 C72.12383057 152.76499756 72.24766113 151.52999512 72.37524414 150.25756836 C73.02505904 144.42571948 74.00472412 138.66094006 74.99609375 132.87890625 C75.18969986 131.73896713 75.38330597 130.59902802 75.58277893 129.42454529 C75.990891 127.0249276 76.40025027 124.62552173 76.81079102 122.22631836 C77.43487815 118.57782768 78.05466858 114.92862665 78.67382812 111.27929688 C79.07266232 108.93745667 79.47174272 106.59565838 79.87109375 104.25390625 C80.05449814 103.17444229 80.23790253 102.09497833 80.42686462 100.98280334 C80.94055388 97.98652895 81.46649463 94.99280442 82 92 C82.24974327 90.569692 82.24974327 90.569692 82.50453186 89.11048889 C82.75172218 87.77019875 82.75172218 87.77019875 83.00390625 86.40283203 C83.14634766 85.61659454 83.28878906 84.83035706 83.43554688 84.02029419 C84.32047508 80.85295358 86.03376237 79.32678396 88.5625 77.3125 C89.90054688 76.2296875 89.90054688 76.2296875 91.265625 75.125 C92.16796875 74.42375 93.0703125 73.7225 94 73 C94.81984375 72.278125 95.6396875 71.55625 96.484375 70.8125 C97.63679688 69.8225 97.63679688 69.8225 98.8125 68.8125 C99.49957031 68.22082031 100.18664062 67.62914062 100.89453125 67.01953125 C103 66 103 66 105.28515625 66.453125 C109.0412811 68.59330549 112.28979154 71.19832977 115.625 73.9375 C116.29273438 74.47568359 116.96046875 75.01386719 117.6484375 75.56835938 C119.44900937 77.02862316 121.24312871 78.48741498 123 80 C123.50603256 80.4248317 124.01206512 80.84966339 124.53343201 81.28736877 C126.3899785 83.45540975 126.64246809 85.00569725 127.10327148 87.8125 C127.3538456 89.28178955 127.3538456 89.28178955 127.60948181 90.78076172 C127.77831375 91.84311035 127.94714569 92.90545898 128.12109375 94 C128.40014305 95.65733154 128.40014305 95.65733154 128.68482971 97.34814453 C129.28044468 100.89697483 129.85974605 104.44822209 130.4375 108 C131.20131707 112.62596149 131.97201962 117.25074452 132.74609375 121.875 C132.93279633 122.99559814 133.1194989 124.11619629 133.31185913 125.27075195 C134.93799183 134.90847895 136.87451403 144.461092 139 154 C140.01590632 148.59073003 141.03126136 143.18135684 142.04623413 137.77191162 C142.43354673 135.70781016 142.82093745 133.64372335 143.20840454 131.57965088 C145.83317445 117.59552891 148.44675805 103.60938456 151.04773712 89.620821 C151.96795722 84.67273533 152.88920342 79.72484054 153.81034851 74.77692699 C154.56675649 70.71317469 155.32239073 66.6492816 156.07623291 62.58505249 C158.97194106 46.97541432 161.88326039 31.36908986 164.96639442 15.79518509 C165.35489826 13.83143555 165.74025108 11.86706345 166.12553406 9.90267944 C166.3577919 8.74063995 166.59004974 7.57860046 166.8293457 6.38134766 C167.03211624 5.36126617 167.23488678 4.34118469 167.44380188 3.29019165 C168 1 168 1 169 0 C171.95705321 -0.08868299 174.89065056 -0.11520296 177.84765625 -0.09765625 C179.17729652 -0.09553383 179.17729652 -0.09553383 180.53379822 -0.09336853 C183.37673254 -0.08775215 186.21958931 -0.07519691 189.0625 -0.0625 C190.98502491 -0.05748711 192.90755104 -0.05292384 194.83007812 -0.04882812 C199.55341549 -0.03777741 204.27669458 -0.02050183 209 0 C210.50391157 3.95909203 209.5373679 7.5240418 208.70263672 11.52441406 C208.55075803 12.28670256 208.39887934 13.04899105 208.24239826 13.8343792 C207.72972029 16.39652393 207.2046657 18.95597449 206.6796875 21.515625 C206.30892664 23.35547026 205.93893575 25.19547083 205.56965637 27.03561401 C204.55963646 32.05738617 203.53892346 37.07693281 202.51638412 42.09616852 C201.44068677 47.38561682 200.37475364 52.67703174 199.30786133 57.96826172 C197.49343116 66.96068333 195.67309694 75.95189283 193.84912109 84.94238281 C191.21615798 97.92220789 188.59753725 110.90489836 185.98275757 123.88839722 C180.67100968 150.26213119 175.35732382 176.63547979 170 203 C169.83530464 203.81109726 169.67060928 204.62219452 169.50092316 205.45787048 C168.49128277 210.42867534 167.47607717 215.39830219 166.45703125 220.3671875 C166.21627365 221.55063751 165.97551605 222.73408752 165.72746277 223.95339966 C165.51036148 225.00631195 165.29326019 226.05922424 165.06958008 227.14404297 C164.88510818 228.04379852 164.70063629 228.94355408 164.51057434 229.87057495 C164 232 164 232 163 234 C153.55009702 235.50554567 143.91778308 235.11209477 134.375 235.0625 C132.68619924 235.05747477 130.99739704 235.05291368 129.30859375 235.04882812 C125.20569289 235.03790399 121.10286273 235.0206958 117 235 C114.54062717 228.9424597 113.01781083 223.03789645 111.7734375 216.62890625 C111.58028961 215.66597153 111.38714172 214.7030368 111.18814087 213.71092224 C110.57744074 210.6626673 109.97555839 207.61276786 109.375 204.5625 C108.76628106 201.48746122 108.15562699 198.41284678 107.54043579 195.33909607 C107.15912138 193.43239348 106.78171358 191.52490476 106.40853882 189.61659241 C106.23811066 188.76157639 106.0676825 187.90656036 105.89208984 187.02563477 C105.74347504 186.27032974 105.59486023 185.51502472 105.44174194 184.73683167 C105.15310591 182.9827745 105.15310591 182.9827745 104 182 C101.82116027 190.43419488 99.7680024 198.87925045 97.96484375 207.40234375 C97.79779938 208.18517731 97.630755 208.96801086 97.45864868 209.77456665 C96.77315458 212.98908013 96.08896862 216.20365941 95.42456055 219.42260742 C94.9291124 221.81440164 94.41727013 224.20217869 93.90234375 226.58984375 C93.68190651 227.6879966 93.68190651 227.6879966 93.45701599 228.80833435 C93.01147461 230.83569336 93.01147461 230.83569336 92 234 C89.24414648 234.91861784 87.6403931 235.12204322 84.80395508 235.11352539 C83.96331009 235.11344986 83.1226651 235.11337433 82.25654602 235.11329651 C81.35333115 235.10813522 80.45011627 235.10297394 79.51953125 235.09765625 C78.59154221 235.0962413 77.66355316 235.09482635 76.70744324 235.09336853 C73.74242942 235.08776937 70.77749101 235.07521704 67.8125 235.0625 C65.80273547 235.05748489 63.79296975 235.052922 61.78320312 235.04882812 C56.85543968 235.03780021 51.92773263 235.02053617 47 235 C44.69297214 228.54802011 42.99784308 222.09490393 41.56640625 215.3984375 C41.33669632 214.33865692 41.10698639 213.27887634 40.87031555 212.1869812 C40.0936438 208.58452989 39.32711291 204.98002925 38.5625 201.375 C38.29076965 200.10023804 38.01903931 198.82547607 37.73907471 197.51208496 C29.43308409 158.4849294 22.01748691 119.27316873 14.48362732 80.0914917 C12.23632331 68.40478912 9.97788256 56.72041518 7.6950264 45.04060364 C6.77971799 40.35583993 5.86752258 35.67046849 4.95465088 30.98522949 C4.49003966 28.6048264 4.02404743 26.22469238 3.55657959 23.84484863 C2.93453774 20.67601673 2.3180828 17.50615043 1.703125 14.3359375 C1.52607025 13.44222443 1.3490155 12.54851135 1.16659546 11.62771606 C1.01010529 10.81519379 0.85361511 10.00267151 0.69238281 9.16552734 C0.55729309 8.47470062 0.42220337 7.7838739 0.28302002 7.07211304 C0 5 0 5 0 0 Z " fill="#FFFFFF" transform="translate(412,402)"/>
<path d="M0 0 C0.88192017 -0.01283524 1.76384033 -0.02567047 2.67248535 -0.03889465 C3.6203894 -0.04628159 4.56829346 -0.05366852 5.54492188 -0.0612793 C6.53182007 -0.06935104 7.51871826 -0.07742279 8.53552246 -0.08573914 C10.62685398 -0.09956409 12.71820791 -0.11029334 14.80957031 -0.11816406 C16.93138316 -0.12964293 19.05316808 -0.15002916 21.17480469 -0.1796875 C43.85241804 -0.49652272 43.85241804 -0.49652272 53.51367188 4.17700195 C54.60164063 4.68360352 55.68960938 5.19020508 56.81054688 5.7121582 C67.2697679 12.22418913 73.3657852 21.31462674 76.51367188 33.17700195 C77.82803231 39.82169028 77.69971944 46.4494309 77.69897461 53.19165039 C77.7011791 55.43435147 77.71942133 57.67657403 77.73828125 59.91918945 C77.74121231 61.34366694 77.74319903 62.76814676 77.74414062 64.19262695 C77.74824951 65.48458984 77.7523584 66.77655273 77.7565918 68.10766602 C77.51367188 71.17700195 77.51367188 71.17700195 75.51367188 73.17700195 C72.82407448 73.38902613 70.24003465 73.48097809 67.54882812 73.4777832 C66.75971542 73.48206833 65.97060272 73.48635345 65.15757751 73.49076843 C63.48730428 73.49651558 61.81700602 73.49700916 60.14672852 73.49267578 C57.58957216 73.4895185 55.03357548 73.51295946 52.4765625 73.53833008 C50.85481917 73.54060329 49.23307272 73.54130646 47.61132812 73.5402832 C46.84563004 73.54949295 46.07993195 73.5587027 45.29103088 73.56819153 C40.0727188 73.52267219 40.0727188 73.52267219 37.53076172 71.95092773 C36.21379862 69.6539873 36.14486439 68.07509894 36.14257812 65.4309082 C36.12517578 64.51116211 36.10777344 63.59141602 36.08984375 62.64379883 C36.08074762 60.71152155 36.07552348 58.77922207 36.07421875 56.84692383 C36.04618164 55.46537109 36.04618164 55.46537109 36.01757812 54.0559082 C36.0157251 53.21616455 36.01387207 52.3764209 36.01196289 51.51123047 C35.32090936 48.27401203 34.16394322 47.12768973 31.51367188 45.17700195 C27.07473109 44.34709816 22.58399816 44.57440093 18.07617188 44.61450195 C16.84833984 44.5906543 15.62050781 44.56680664 14.35546875 44.54223633 C13.17146484 44.54416992 11.98746094 44.54610352 10.76757812 44.5480957 C9.68806885 44.54737061 8.60855957 44.54664551 7.49633789 44.54589844 C3.45175457 45.40169347 2.10517104 46.99372939 -0.48632812 50.17700195 C-1.24936616 53.45852258 -1.24936616 53.45852258 -1.16162109 57.10791016 C-1.17970086 58.13145961 -1.17970086 58.13145961 -1.19814587 59.17568684 C-1.23201083 61.44346943 -1.23044918 63.70977037 -1.22851562 65.9777832 C-1.24479107 67.59062799 -1.2631003 69.20345337 -1.28330994 70.81625366 C-1.33069781 75.14495639 -1.34626862 79.47321666 -1.35412979 83.80215073 C-1.36371804 87.38172788 -1.38971186 90.96111256 -1.41537952 94.54060459 C-1.49067941 105.25619066 -1.50520759 115.97127944 -1.48978424 126.68708801 C-1.48646005 129.08196046 -1.48463548 131.47682994 -1.48309326 133.8717041 C-1.47541616 142.00092711 -1.43487598 150.12888601 -1.34014893 158.25765991 C-1.31268907 160.65459671 -1.29064088 163.05160184 -1.27410889 165.44863892 C-1.24709025 168.73770906 -1.19364229 172.02516439 -1.13085938 175.3137207 C-1.12642319 176.26725433 -1.121987 177.22078796 -1.11741638 178.20321655 C-1.01585647 182.0603472 -0.93974925 184.46203326 1.15332031 187.76245117 C4.2385467 189.61141701 6.33394409 189.67896695 9.92382812 189.6730957 C11.16068359 189.67374023 12.39753906 189.67438477 13.671875 189.67504883 C14.96029297 189.65506836 16.24871094 189.63508789 17.57617188 189.61450195 C18.86845703 189.6215918 20.16074219 189.62868164 21.4921875 189.63598633 C27.73581554 189.9655064 27.73581554 189.9655064 33.36376953 187.90087891 C34.71668814 185.87264997 34.99548333 184.58447321 35.18945312 182.16137695 C35.25342285 181.36538086 35.31739258 180.56938477 35.38330078 179.74926758 C35.60849841 175.30604236 35.69799879 170.87567115 35.70117188 166.42700195 C35.71341797 165.50790039 35.72566406 164.58879883 35.73828125 163.6418457 C35.74823755 159.05530985 35.72138258 155.33063949 33.51367188 151.17700195 C32.47726563 151.1512207 31.44085938 151.12543945 30.37304688 151.09887695 C29.00321387 151.04258245 27.63342383 150.9852354 26.26367188 150.92700195 C25.58175781 150.91282227 24.89984375 150.89864258 24.19726562 150.8840332 C21.03239925 150.73039891 18.91106888 150.46281566 16.31298828 148.59423828 C13.83661298 145.26742799 14.02670464 143.01143351 14.05273438 138.8918457 C14.05410904 137.84559776 14.05410904 137.84559776 14.05551147 136.7782135 C14.06153772 135.30812752 14.07725475 133.83805326 14.10205078 132.36816406 C14.13860794 130.1184365 14.14306966 127.87035522 14.14257812 125.62036133 C14.21817713 114.62024407 14.21817713 114.62024407 16.51367188 111.17700195 C19.03201294 110.8162384 19.03201294 110.8162384 22.24853516 110.83642578 C23.44962921 110.83665237 24.65072327 110.83687897 25.88821411 110.83711243 C27.84137039 110.86033821 27.84137039 110.86033821 29.83398438 110.8840332 C31.17633593 110.8896278 32.5186936 110.89389854 33.86105347 110.89689636 C37.39578129 110.9083561 40.93013985 110.93783237 44.46472168 110.9710083 C48.07083134 111.00168524 51.67700062 111.01539657 55.28320312 111.03051758 C62.3601772 111.06270143 69.43690044 111.11391102 76.51367188 111.17700195 C77.74684346 113.64334512 77.63678211 115.25251369 77.63392639 118.01113892 C77.63598839 119.54243187 77.63598839 119.54243187 77.63809204 121.10466003 C77.63269913 122.79103325 77.63269913 122.79103325 77.62719727 124.51147461 C77.62734329 125.6919487 77.62748932 126.87242279 77.62763977 128.08866882 C77.62706147 131.3301997 77.62203771 134.5716877 77.61506581 137.81321001 C77.60882494 141.19915106 77.60822789 144.5850929 77.60704041 147.97103882 C77.60392926 154.38481205 77.59571878 160.79856829 77.58569092 167.21233404 C77.57452306 174.51332742 77.56901763 181.8143216 77.56399548 189.1153214 C77.553536 204.13589106 77.53594074 219.15644481 77.51367188 234.17700195 C74.28763642 235.79001968 70.7665715 235.29753794 67.22460938 235.2746582 C65.99697372 235.27253578 65.99697372 235.27253578 64.74453735 235.27037048 C62.12587863 235.26476485 59.50730484 235.25221144 56.88867188 235.23950195 C55.11523561 235.23448768 53.341798 235.22992464 51.56835938 235.22583008 C47.21676406 235.21479359 42.86523238 235.1975252 38.51367188 235.17700195 C36.64762843 230.99620997 36.46792119 228.67372989 37.51367188 224.17700195 C34.57218813 226.09238672 31.85421183 227.86484033 29.26367188 230.23950195 C19.61357071 237.03843687 6.87342112 236.07180429 -4.34179688 234.70825195 C-14.46084581 232.85438039 -22.63004797 228.98554324 -29.48632812 221.17700195 C-30.22302734 220.42676758 -30.22302734 220.42676758 -30.97460938 219.66137695 C-45.47828512 204.25796946 -41.77740653 178.45441511 -41.72204757 158.91466546 C-41.71314883 155.1024699 -41.71502676 151.29027695 -41.71540833 147.47807312 C-41.71447702 141.08431932 -41.70586452 134.69061349 -41.69213867 128.296875 C-41.67639873 120.93843328 -41.67114162 113.58004387 -41.67187423 106.22158653 C-41.6725531 98.33324222 -41.66559614 90.44491765 -41.65642762 82.55657935 C-41.6543116 80.30594604 -41.65358856 78.05531599 -41.65318871 75.80468178 C-41.65217345 72.25127167 -41.6459821 68.69790429 -41.63602257 65.14450836 C-41.63177833 63.24229369 -41.63226302 61.34007023 -41.63296509 59.43785095 C-41.56996978 42.24050375 -40.99761892 26.29030047 -28.48632812 13.17700195 C-27.89078125 12.54149414 -27.29523438 11.90598633 -26.68164062 11.2512207 C-19.70825243 4.49484666 -9.76237132 0.12446807 0 0 Z " fill="#FFFFFF" transform="translate(176.486328125,401.822998046875)"/>
<path d="M0 0 C2.96038485 0.02146797 5.91835031 0.00010606 8.87866211 -0.02539062 C18.50378719 -0.03977024 27.15707733 -0.01959665 35.90014648 4.52148438 C36.89530273 4.99070312 37.89045898 5.45992188 38.91577148 5.94335938 C49.22925436 12.07375129 55.15693984 20.3123457 58.9465332 31.65283203 C59.99333211 35.89952316 60.20624527 39.66281331 60.20092773 44.00976562 C60.20521286 44.79417526 60.20949799 45.5785849 60.21391296 46.38676453 C60.21962003 48.03135212 60.22018348 49.67596493 60.21582031 51.32055664 C60.21263341 53.84434149 60.23625532 56.36698246 60.26147461 58.890625 C60.26374521 60.49283707 60.26445221 62.09505228 60.26342773 63.69726562 C60.27263748 64.45243973 60.28184723 65.20761383 60.29133606 65.985672 C60.27246094 68.10083008 60.27246094 68.10083008 59.90014648 71.52148438 C56.2927799 73.92639543 53.66053374 73.81131301 49.49389648 73.78710938 C48.41223206 73.78997955 48.41223206 73.78997955 47.30871582 73.79290771 C45.78564098 73.79426738 44.26255446 73.79058615 42.73950195 73.78222656 C40.40867066 73.77152352 38.07861007 73.78212876 35.74780273 73.79492188 C34.26733228 73.79360024 32.78686231 73.79103777 31.30639648 73.78710938 C30.60945679 73.79115784 29.91251709 73.7952063 29.19445801 73.79937744 C25.53818687 73.76395767 24.02960221 73.60778819 20.90014648 71.52148438 C20.51538086 69.43017578 20.51538086 69.43017578 20.49389648 66.87304688 C20.47198242 65.95007813 20.45006836 65.02710938 20.42749023 64.07617188 C20.4184668 63.109375 20.40944336 62.14257812 20.40014648 61.14648438 C20.38223422 59.24266632 20.35146232 57.33891575 20.30639648 55.43554688 C20.29930664 54.58943848 20.2922168 53.74333008 20.28491211 52.87158203 C19.81324288 49.99068864 18.89570459 48.62901416 16.90014648 46.52148438 C12.19491419 44.95307361 7.45414215 45.21309242 2.52514648 45.14648438 C1.48358398 45.10910156 0.44202148 45.07171875 -0.63110352 45.03320312 C-5.13584572 44.98135827 -8.25528042 45.08474303 -12.29516602 47.17382812 C-15.27341522 52.69841593 -14.73786165 58.29566648 -14.59985352 64.45898438 C-14.60243164 65.72162109 -14.60500977 66.98425781 -14.60766602 68.28515625 C-14.54106767 74.59534903 -14.35077102 78.97041313 -11.09985352 84.52148438 C-3.15004581 92.08750826 9.4959435 96.4105148 19.29798889 101.11045837 C21.95943853 102.39150985 24.61383108 103.68681059 27.26748657 104.98391724 C28.58751574 105.62502037 29.9105203 106.26003937 31.23666382 106.88839722 C42.67296364 112.31083226 54.3818199 118.97349602 58.90014648 131.52148438 C61.46787671 141.97624513 61.20770359 152.73301216 61.16088867 163.42211914 C61.15020514 166.31808599 61.16081677 169.21342737 61.17358398 172.109375 C61.20714911 208.85534053 61.20714911 208.85534053 48.58764648 222.52148438 C34.61988999 234.89560422 19.3040609 235.69891017 1.46264648 235.70898438 C0.32504883 235.72123047 -0.81254883 235.73347656 -1.98461914 235.74609375 C-18.70467147 235.77470764 -31.71514853 232.72157239 -43.85766602 220.79492188 C-51.48417295 212.40193183 -54.430585 202.56828429 -54.36547852 191.37304688 C-54.36739197 190.63444427 -54.36930542 189.89584167 -54.37127686 189.13485718 C-54.37262657 187.59038955 -54.36901583 186.04591011 -54.3605957 184.50146484 C-54.34978554 182.13158131 -54.36057874 179.7624399 -54.37329102 177.39257812 C-54.37197101 175.88606604 -54.3694119 174.37955441 -54.36547852 172.87304688 C-54.36952698 172.16475739 -54.37357544 171.4564679 -54.37774658 170.72671509 C-54.32984074 165.7514716 -54.32984074 165.7514716 -52.09985352 163.52148438 C-49.55389281 163.32186026 -47.11909416 163.24161889 -44.57250977 163.25585938 C-43.82778915 163.25394592 -43.08306854 163.25203247 -42.31578064 163.25006104 C-40.73965111 163.24869923 -39.16351036 163.25239535 -37.58740234 163.26074219 C-35.17528018 163.27142711 -32.76390533 163.26085491 -30.35180664 163.24804688 C-28.82120604 163.24936877 -27.2906059 163.25193177 -25.76000977 163.25585938 C-25.03805923 163.25181091 -24.3161087 163.24776245 -23.57228088 163.24359131 C-19.86467682 163.27826951 -18.26769004 163.40959336 -15.09985352 165.52148438 C-14.69921875 167.42919922 -14.69921875 167.42919922 -14.65844727 169.73242188 C-14.63202148 170.56515625 -14.6055957 171.39789062 -14.57836914 172.25585938 C-14.56483398 173.12726563 -14.55129883 173.99867188 -14.53735352 174.89648438 C-14.50277064 176.61281967 -14.46008335 178.32901496 -14.40844727 180.04492188 C-14.39612061 180.80724121 -14.38379395 181.56956055 -14.37109375 182.35498047 C-14.06378814 184.80955288 -13.40030366 186.42479925 -12.09985352 188.52148438 C-7.75691742 190.69295242 -1.93261791 189.75115293 2.83764648 189.77148438 C4.04356445 189.79210937 5.24948242 189.81273437 6.49194336 189.83398438 C8.22347656 189.84171875 8.22347656 189.84171875 9.98999023 189.84960938 C11.58121704 189.86362793 11.58121704 189.86362793 13.20458984 189.87792969 C15.90647603 189.74145721 15.90647603 189.74145721 17.70703125 188.18847656 C21.28029867 183.19599243 20.12432288 176.31361709 20.14038086 170.43505859 C20.15004985 168.29289371 20.18106757 166.15170397 20.21264648 164.00976562 C20.219181 162.6334692 20.22442971 161.25716595 20.22827148 159.88085938 C20.23761719 158.63788086 20.24696289 157.39490234 20.2565918 156.11425781 C19.79043047 151.41560712 18.61815049 147.25528612 15.20092773 143.80664062 C9.98639982 140.60006452 4.60998773 137.81197479 -0.88208008 135.11767578 C-7.53646312 131.84192788 -14.11342174 128.42377557 -20.6656189 124.94918823 C-21.89763593 124.2974142 -23.1313444 123.6488258 -24.36685181 123.00369263 C-37.14501499 116.32562379 -48.78994193 109.53894822 -53.44842529 95.23986816 C-54.68517854 90.07894658 -54.54678328 84.87765669 -54.53344727 79.59570312 C-54.53868912 78.37172318 -54.54393097 77.14774323 -54.54933167 75.88667297 C-54.55573034 73.30735021 -54.55444296 70.72799819 -54.54589844 68.14868164 C-54.53740213 64.23139677 -54.56616173 60.31557819 -54.59790039 56.3984375 C-54.59951312 53.88085981 -54.59893349 51.36327956 -54.59594727 48.84570312 C-54.60718124 47.68906662 -54.61841522 46.53243011 -54.62998962 45.34074402 C-54.52199485 32.54814613 -50.77117437 22.00892955 -42.09985352 12.52148438 C-29.51414952 1.01842158 -16.31436137 -0.14081613 0 0 Z " fill="#FFFFFF" transform="translate(55.099853515625,401.478515625)"/>
<path d="M0 0 C-0.1846582 0.52932129 -0.36931641 1.05864258 -0.55957031 1.60400391 C-1.97897531 5.75490684 -3.26834171 9.89855709 -4.359375 14.1484375 C-4.58882812 15.00824219 -4.81828125 15.86804688 -5.0546875 16.75390625 C-5.52304183 18.5194442 -5.97059817 20.29061529 -6.3984375 22.06640625 C-8.17003202 28.50060392 -8.17003202 28.50060392 -12.20703125 30.9296875 C-14.08455078 31.45949219 -14.08455078 31.45949219 -16 32 C-17.28274194 32.44515396 -18.56267086 32.89848637 -19.83984375 33.359375 C-20.50137451 33.58383301 -21.16290527 33.80829102 -21.84448242 34.03955078 C-56.85962331 45.92501211 -89.3638383 65.60303519 -115.18359375 92.18359375 C-117 94 -117 94 -119.625 96.0625 C-122.46567815 98.37989533 -124.70282354 100.98174545 -127.07421875 103.76953125 C-128.33705565 105.23216791 -129.63091857 106.66869813 -130.95703125 108.07421875 C-143.34450781 121.24309458 -153.61540891 136.59064471 -163 152 C-163.41701172 152.68288086 -163.83402344 153.36576172 -164.26367188 154.06933594 C-196.86527405 208.21037419 -204.91787757 272.10970245 -198 334 C-204.01872541 336.76650185 -209.94034104 336.00395518 -216.375 335.625 C-217.49261719 335.56828125 -218.61023438 335.5115625 -219.76171875 335.453125 C-222.50851688 335.31226356 -225.25431568 335.16091224 -228 335 C-233.08449857 322.79720342 -231.24251368 307.29974038 -231.25 294.3125 C-231.25067474 293.26198456 -231.25134949 292.21146912 -231.25204468 291.12911987 C-231.23613593 275.54048068 -230.80971529 260.37323551 -228 245 C-227.75056641 243.56551514 -227.75056641 243.56551514 -227.49609375 242.10205078 C-223.00818013 216.79936003 -215.17789885 192.56150103 -205 169 C-204.649375 168.18821289 -204.29875 167.37642578 -203.9375 166.54003906 C-196.70266858 150.02851463 -187.27531783 134.77643659 -177 120 C-176.50097168 119.28166992 -176.00194336 118.56333984 -175.48779297 117.82324219 C-166.74429639 105.31252919 -157.58607907 93.16382485 -146.5546875 82.5546875 C-144.86455958 80.86455958 -143.34898869 79.08055351 -141.8125 77.25 C-133.11109796 67.21438298 -122.56405652 58.96965635 -112 51 C-111.33258789 50.49210937 -110.66517578 49.98421875 -109.97753906 49.4609375 C-80.39303859 27.06222945 -46.96554609 10.55479138 -11.125 0.875 C-10.34012207 0.66238525 -9.55524414 0.44977051 -8.74658203 0.23071289 C-3.38242798 -1.12747599 -3.38242798 -1.12747599 0 0 Z " fill="#FFFFFF" transform="translate(247,35)"/>
<path d="M0 0 C27.97795754 9.42183431 54.36765291 23.2920234 77.87939453 41.15844727 C78.73259277 41.80547607 78.73259277 41.80547607 79.60302734 42.46557617 C97.01235699 55.74807029 113.99200435 70.13421237 127.87939453 87.15844727 C128.49814453 87.90650635 128.49814453 87.90650635 129.12939453 88.66967773 C141.2414737 103.34295698 152.15433701 118.80444116 161.87939453 135.15844727 C162.49379395 136.18760254 162.49379395 136.18760254 163.12060547 137.23754883 C187.84805691 179.0676716 201.50006904 228.6751562 202.87939453 277.15844727 C202.90130859 277.91029297 202.92322266 278.66213867 202.94580078 279.43676758 C203.7735589 313.58178981 203.7735589 313.58178981 199.87939453 329.15844727 C189.97939453 329.15844727 180.07939453 329.15844727 169.87939453 329.15844727 C169.87939453 323.93509639 169.87983477 319.0705749 170.31689453 313.92797852 C170.40745117 312.80665527 170.49800781 311.68533203 170.59130859 310.5300293 C170.73391113 308.76828369 170.73391113 308.76828369 170.87939453 306.97094727 C174.45479508 259.27610058 167.1658489 212.65834897 146.87939453 169.15844727 C146.56035156 168.46138672 146.24130859 167.76432617 145.91259766 167.04614258 C137.49144235 148.77063323 126.35867435 131.89807947 113.87939453 116.15844727 C113.07630859 115.14266602 112.27322266 114.12688477 111.44580078 113.08032227 C98.55204934 97.08045046 84.22607036 81.67161062 67.87939453 69.15844727 C66.90228516 68.37598633 65.92517578 67.59352539 64.91845703 66.78735352 C43.61313282 49.81384491 19.67712856 37.05371034 -5.96826172 27.96313477 C-6.84538818 27.64618652 -7.72251465 27.32923828 -8.6262207 27.00268555 C-11.07416145 26.13313072 -11.07416145 26.13313072 -13.46069336 25.59155273 C-16.49028265 24.77798459 -18.64708701 23.97962123 -20.25219727 21.19604492 C-21.16094748 18.66169623 -21.82597273 16.15610844 -22.43310547 13.53344727 C-22.886264 11.79092937 -23.3406842 10.04873909 -23.79638672 8.30688477 C-24.00859863 7.45578125 -24.22081055 6.60467773 -24.43945312 5.7277832 C-25.47874183 1.8075415 -26.7805564 -2.01533702 -28.12060547 -5.84155273 C-21.50293966 -9.15038564 -6.59842815 -2.14084375 0 0 Z " fill="#FFFFFF" transform="translate(385.12060546875,40.841552734375)"/>
<path d="M0 0 C4.99617525 3.93016727 8.80140021 7.96115332 12.3125 13.25 C13.0079895 14.28229736 13.0079895 14.28229736 13.7175293 15.33544922 C35.14181817 47.68456213 48.03789596 86.48406755 40.375 125.5 C37.23002433 139.94834628 31.83872574 156.52145336 22.28341675 168.07568359 C16.6425547 175.07392103 15.992515 180.63001146 16.09765625 189.4453125 C16.08536484 190.69633759 16.07307343 191.94736267 16.06040955 193.23629761 C16.03417838 196.52804575 16.03752376 199.8179371 16.05578613 203.10968018 C16.06702115 206.48212522 16.03856696 209.8542249 16.01367188 213.2265625 C15.97294262 219.81798617 15.97126553 226.40853251 16 233 C15.67 233 15.34 233 15 233 C15.00222061 232.26737442 15.00444122 231.53474884 15.00672913 230.77992249 C15.10223952 197.6103896 15.14254965 164.43845408 14.73654175 131.27072144 C14.70272052 128.48764087 14.67534847 125.70461961 14.65383911 122.92141724 C14.60517158 102.75178487 14.60517158 102.75178487 11 83 C10.79109131 82.19248291 10.58218262 81.38496582 10.36694336 80.55297852 C8.05864868 72.04047142 4.93023423 63.89391726 1 56 C-8.74176935 77.32785425 -12.0655003 96.62046881 -12.31640625 119.9453125 C-12.33701809 121.56770302 -12.35801553 123.19008869 -12.37937927 124.81246948 C-12.43416378 129.05049669 -12.48376248 133.28856879 -12.53222656 137.52667236 C-12.58276335 141.86417563 -12.6382802 146.20161496 -12.69335938 150.5390625 C-12.80040608 159.02598736 -12.90196622 167.51296626 -13 176 C-16.37478431 174.8750719 -16.66547712 174.41483373 -18.453125 171.52734375 C-19.12976196 170.43740112 -19.12976196 170.43740112 -19.82006836 169.32543945 C-20.2919458 168.53741943 -20.76382324 167.74939941 -21.25 166.9375 C-21.98198608 165.72163208 -21.98198608 165.72163208 -22.72875977 164.48120117 C-39.9443458 135.31279538 -44.29121896 101.84539032 -36.17114258 68.96362305 C-29.94684109 45.41070052 -19.39542696 23.85208586 -4 5 C-2.6658353 3.33399877 -1.33221771 1.66755855 0 0 Z " fill="#548460" transform="translate(301,0)"/>
<path d="M0 0 C1.55654297 -0.10634766 1.55654297 -0.10634766 3.14453125 -0.21484375 C10.63491721 -0.3966028 10.63491721 -0.3966028 13.66625977 2.38061523 C15.26122254 4.72415664 16.52411338 7.07044588 17.75 9.625 C18.51789841 11.01782856 19.28734846 12.40980316 20.05859375 13.80078125 C20.77255162 15.17745443 21.48214378 16.5563999 22.1875 17.9375 C25.83852459 24.96613129 29.69535441 31.81977448 33.75 38.625 C38.89040246 30.26383778 43.5453498 21.67975758 48.15820312 13.01953125 C48.70798828 11.99472656 49.25777344 10.96992187 49.82421875 9.9140625 C50.31494873 8.99318848 50.80567871 8.07231445 51.3112793 7.12353516 C54.06591785 2.33972879 54.06591785 2.33972879 55.75 0.625 C58.29370117 0.17089844 58.29370117 0.17089844 61.29296875 0.234375 C62.36611328 0.24726562 63.43925781 0.26015625 64.54492188 0.2734375 C65.66447266 0.30695312 66.78402344 0.34046875 67.9375 0.375 C69.06865234 0.39304687 70.19980469 0.41109375 71.36523438 0.4296875 C74.16100376 0.47687348 76.95507972 0.54269405 79.75 0.625 C81.06221524 4.56164572 80.88088917 8.30822191 80.86352539 12.41088867 C80.86367142 13.30865524 80.86381744 14.20642181 80.8639679 15.13139343 C80.86327064 18.10194303 80.85548697 21.07243009 80.84765625 24.04296875 C80.84579141 26.10134344 80.84436782 28.15971858 80.84336853 30.21809387 C80.83954859 35.63830794 80.82972273 41.05849524 80.81866455 46.47869873 C80.80843921 52.00858193 80.8038685 57.53846945 80.79882812 63.06835938 C80.78810003 73.92058468 80.77102984 84.77279011 80.75 95.625 C77.27085059 95.65387814 73.79173169 95.67175687 70.3125 95.6875 C68.82266602 95.70006836 68.82266602 95.70006836 67.30273438 95.71289062 C66.35849609 95.71611328 65.41425781 95.71933594 64.44140625 95.72265625 C63.56685791 95.72789307 62.69230957 95.73312988 61.79125977 95.73852539 C59.75 95.625 59.75 95.625 58.75 94.625 C58.65680551 93.0901703 58.632542 91.55107918 58.63647461 90.01342773 C58.63658791 88.54201576 58.63658791 88.54201576 58.63670349 87.0408783 C58.64186478 85.9742244 58.64702606 84.9075705 58.65234375 83.80859375 C58.6537587 82.7224025 58.65517365 81.63621124 58.65663147 80.5171051 C58.66224952 77.03220925 58.67480508 73.54737658 58.6875 70.0625 C58.69251267 67.70638113 58.69707598 65.35026126 58.70117188 62.99414062 C58.71222481 57.20440536 58.72898049 51.41470719 58.75 45.625 C58.32702637 46.36024902 57.90405273 47.09549805 57.46826172 47.85302734 C55.86987054 50.63046656 54.27064907 53.40742565 52.67089844 56.18408203 C51.9840518 57.37660427 51.29751835 58.56930697 50.61132812 59.76220703 C38.41924505 80.95575495 38.41924505 80.95575495 36.75 82.625 C34.41702567 82.66592937 32.08294775 82.66741723 29.75 82.625 C27.72683924 79.06381718 25.70692565 75.500802 23.6875 71.9375 C23.12611328 70.94943359 22.56472656 69.96136719 21.98632812 68.94335938 C17.80343466 61.55756462 13.74790699 54.11207217 9.75 46.625 C9.73969254 47.22412704 9.72938507 47.82325409 9.71876526 48.4405365 C9.61093035 54.65310088 9.49631456 60.86551341 9.37768555 67.07788086 C9.33426261 69.39913773 9.29259316 71.72042808 9.25268555 74.04174805 C9.1951606 77.37038278 9.13141575 80.69884785 9.06640625 84.02734375 C9.04133751 85.59451393 9.04133751 85.59451393 9.01576233 87.19334412 C8.99581711 88.15426468 8.97587189 89.11518524 8.95532227 90.10522461 C8.93977798 90.95571884 8.9242337 91.80621307 8.90821838 92.68247986 C8.75 94.625 8.75 94.625 7.75 95.625 C6.27347336 95.72380797 4.79232764 95.75579245 3.3125 95.7578125 C1.97058594 95.75974609 1.97058594 95.75974609 0.6015625 95.76171875 C-0.80996094 95.75591797 -0.80996094 95.75591797 -2.25 95.75 C-3.66152344 95.75580078 -3.66152344 95.75580078 -5.1015625 95.76171875 C-5.99617188 95.76042969 -6.89078125 95.75914062 -7.8125 95.7578125 C-8.63878906 95.75668457 -9.46507812 95.75555664 -10.31640625 95.75439453 C-12.25 95.625 -12.25 95.625 -13.25 94.625 C-13.34523905 91.73356849 -13.37553027 88.86607936 -13.36352539 85.97436523 C-13.36367142 85.06713715 -13.36381744 84.15990906 -13.3639679 83.22518921 C-13.36326841 80.21130015 -13.35547434 77.19747207 -13.34765625 74.18359375 C-13.3457922 72.09994033 -13.34436824 70.01628646 -13.34336853 67.93263245 C-13.33954234 62.43676554 -13.3297112 56.94092487 -13.31866455 51.44506836 C-13.3084526 45.84163773 -13.30387137 40.23820287 -13.29882812 34.63476562 C-13.28808902 23.63149886 -13.27101139 12.62825161 -13.25 1.625 C-9.25649224 -0.37175388 -4.39191655 0.13439157 0 0 Z " fill="#D6E3D9" transform="translate(472.25,679.375)"/>
<path d="M0 0 C0.82838882 -0.00960754 1.65677765 -0.01921509 2.51026917 -0.02911377 C3.85084633 -0.03548859 3.85084633 -0.03548859 5.21850586 -0.04199219 C6.14497421 -0.04769226 7.07144257 -0.05339233 8.02598572 -0.05926514 C9.99045674 -0.06871561 11.95494362 -0.07524931 13.91943359 -0.07910156 C16.89766967 -0.08875158 19.87519901 -0.11975126 22.85327148 -0.15136719 C24.76667887 -0.15790323 26.68009117 -0.16315134 28.59350586 -0.16699219 C29.47305435 -0.17933899 30.35260284 -0.19168579 31.25880432 -0.20440674 C41.02554121 -0.16994168 49.79930768 2.15029081 56.87084961 9.16113281 C64.64434369 18.80026547 65.8274747 28.15548798 64.87084961 40.16113281 C63.04838136 47.57526502 58.3293167 53.60845472 52.24584961 58.09863281 C49.87084961 59.16113281 49.87084961 59.16113281 45.87084961 59.16113281 C47.53542237 62.20394972 49.20262716 65.24531538 50.87084961 68.28613281 C51.36689697 69.19089355 51.86294434 70.0956543 52.37402344 71.02783203 C55.99257898 77.61009584 59.70493883 84.12902026 63.50756836 90.60644531 C64.87084961 93.16113281 64.87084961 93.16113281 64.87084961 95.16113281 C57.28084961 95.16113281 49.69084961 95.16113281 41.87084961 95.16113281 C39.75054837 91.37214684 37.63183681 87.58235969 35.51708984 83.7902832 C34.79730724 82.50070648 34.0766107 81.21163943 33.35498047 79.9230957 C32.31749242 78.07018346 31.28331202 76.21545921 30.24975586 74.36035156 C29.62657471 73.24490967 29.00339355 72.12946777 28.36132812 70.98022461 C26.87084961 68.16113281 26.87084961 68.16113281 25.87084961 65.16113281 C21.91084961 65.16113281 17.95084961 65.16113281 13.87084961 65.16113281 C13.87084961 75.06113281 13.87084961 84.96113281 13.87084961 95.16113281 C6.94084961 95.16113281 0.01084961 95.16113281 -7.12915039 95.16113281 C-7.12915039 64.14113281 -7.12915039 33.12113281 -7.12915039 1.16113281 C-4.41545721 0.25656842 -2.79255059 0.02622531 0 0 Z M13.87084961 23.16113281 C13.78415529 24.64985141 13.76381467 26.14257781 13.77319336 27.63378906 C13.77641602 28.53291016 13.77963867 29.43203125 13.78295898 30.35839844 C13.79133789 31.30392578 13.7997168 32.24945312 13.80834961 33.22363281 C13.81286133 34.17302734 13.81737305 35.12242187 13.82202148 36.10058594 C13.83384851 38.45416346 13.85032936 40.80761759 13.87084961 43.16113281 C17.24555465 43.27802907 20.61973391 43.34861215 23.99584961 43.41113281 C24.94717773 43.44464844 25.89850586 43.47816406 26.87866211 43.51269531 C32.7371965 43.59406385 36.2958299 43.22456885 40.87084961 39.16113281 C43.31690666 35.49204724 43.71031363 32.42494512 42.87084961 28.16113281 C40.69510545 25.47008083 38.96019105 23.70580353 35.87084961 22.16113281 C34.28848874 22.06540729 32.70219571 22.03039234 31.11694336 22.02832031 C30.18043945 22.02703125 29.24393555 22.02574219 28.27905273 22.02441406 C26.80855469 22.03021484 26.80855469 22.03021484 25.30834961 22.03613281 C24.32415039 22.03226563 23.33995117 22.02839844 22.32592773 22.02441406 C20.92310547 22.02634766 20.92310547 22.02634766 19.49194336 22.02832031 C18.63012451 22.02944824 17.76830566 22.03057617 16.88037109 22.03173828 C14.87294929 21.93896366 14.87294929 21.93896366 13.87084961 23.16113281 Z " fill="#D6E3D9" transform="translate(257.129150390625,679.8388671875)"/>
<path d="M0 0 C7.55092803 6.47222403 12.83978073 13.30616278 13.84960938 23.52230835 C14.15814028 28.98139045 14.1511507 34.43618079 14.09155273 39.90209961 C14.06252834 42.80966145 14.07098739 45.7154012 14.08398438 48.62304688 C14.07774689 50.50000872 14.06935587 52.3769649 14.05859375 54.25390625 C14.06152939 55.10835831 14.06446503 55.96281036 14.06748962 56.84315491 C13.91779041 66.57550574 11.4945655 75.04495295 4.75390625 82.25 C-3.95694821 90.69688917 -12.82400472 92.889306 -24.66503906 92.79345703 C-33.83761876 92.42076064 -42.1719158 89.36474797 -48.9140625 82.984375 C-55.63931943 75.00038014 -57.68626269 66.39387495 -57.7109375 56.20703125 C-57.7175943 55.24278732 -57.7242511 54.2785434 -57.73110962 53.28507996 C-57.74120925 51.24858499 -57.74592747 49.2120571 -57.74560547 47.17553711 C-57.74996151 44.08976347 -57.78626284 41.00544123 -57.82421875 37.91992188 C-57.90290136 24.42619574 -57.47616118 13.3730076 -47.640625 3.19140625 C-33.96303257 -8.52887554 -15.3159508 -7.94160412 0 0 Z M-34.00976562 21.82861328 C-35.99711674 25.35338946 -35.84274673 28.79846887 -35.84375 32.7421875 C-35.85136353 33.56574738 -35.85897705 34.38930725 -35.86682129 35.23782349 C-35.87761117 36.97769139 -35.8804799 38.717624 -35.87597656 40.45751953 C-35.87500567 43.10950755 -35.91660511 45.75858694 -35.9609375 48.41015625 C-35.96614606 50.10416066 -35.96883267 51.79817508 -35.96875 53.4921875 C-35.98514526 54.27987518 -36.00154053 55.06756287 -36.01843262 55.87911987 C-35.96748585 59.97123718 -35.57974091 62.5005661 -32.96289062 65.73486328 C-29.31788924 69.27739198 -27.54726613 69.42624267 -22.5625 69.5 C-21.52480469 69.52578125 -20.48710937 69.5515625 -19.41796875 69.578125 C-15.89147435 69.19786116 -14.16207553 68.4266634 -11.375 66.25 C-8.0756758 61.99107169 -7.921532 58.04200882 -7.94140625 52.84375 C-7.9361644 52.04142944 -7.93092255 51.23910889 -7.92552185 50.41247559 C-7.91911769 48.72144729 -7.92041783 47.03037434 -7.92895508 45.33935547 C-7.93747366 42.75798032 -7.90867053 40.17881352 -7.87695312 37.59765625 C-7.87534107 35.95052149 -7.87591872 34.30338284 -7.87890625 32.65625 C-7.86767227 31.88841187 -7.85643829 31.12057373 -7.84486389 30.32946777 C-7.90953089 25.33688366 -8.79596906 22.74562396 -12.375 19.25 C-19.24142545 15.13014473 -28.32163802 16.33586641 -34.00976562 21.82861328 Z " fill="#D6E3D9" transform="translate(202.375,683.75)"/>
<path d="M0 0 C0.76650879 0.00249756 1.53301758 0.00499512 2.32275391 0.00756836 C3.29647949 0.01667236 4.27020508 0.02577637 5.2734375 0.03515625 C6.94579847 0.04664717 8.61816197 0.0577731 10.29052734 0.06860352 C11.11306 0.07408707 11.93559265 0.07957062 12.78305054 0.08522034 C13.70641708 0.09137611 13.70641708 0.09137611 14.6484375 0.09765625 C15.29841594 10.41940557 15.72418407 20.71602197 15.82421875 31.05859375 C15.83613251 32.07334778 15.84804626 33.08810181 15.86032104 34.13360596 C15.90917172 38.31695551 15.95686988 42.49997841 15.97436523 46.68359375 C15.98978406 49.78823412 16.02985116 52.8917501 16.07421875 55.99609375 C16.07231033 56.93875092 16.07040192 57.88140808 16.06843567 58.85263062 C16.14843864 63.11826691 16.26193819 65.47694636 18.55932617 69.16650391 C21.80747974 72.1690626 23.68726405 72.23428138 28.0234375 72.22265625 C28.97992188 72.22523438 29.93640625 72.2278125 30.921875 72.23046875 C33.35352044 72.11202184 35.35685678 71.90308711 37.6484375 71.09765625 C40.53019519 66.69918399 40.78060699 62.09374356 40.85375977 56.95214844 C40.87370499 55.71116394 40.89365021 54.47017944 40.91419983 53.19158936 C40.93118143 51.84257125 40.94806033 50.49355184 40.96484375 49.14453125 C40.98542626 47.76018674 41.00642307 46.37584833 41.02781677 44.99151611 C41.08290357 41.35511225 41.13237164 37.71865292 41.18066406 34.08215332 C41.23097714 30.368521 41.28661192 26.65496881 41.34179688 22.94140625 C41.44921454 15.66022419 41.55069558 8.37897531 41.6484375 1.09765625 C43.8350905 0.90052387 46.02282825 0.71540717 48.2109375 0.53515625 C49.42910156 0.43074219 50.64726562 0.32632813 51.90234375 0.21875 C55.62701274 0.09834881 58.98385946 0.4609535 62.6484375 1.09765625 C62.71823798 9.79100732 62.77140023 18.48426052 62.80387402 27.17783165 C62.81946722 31.21549826 62.84058798 35.25297181 62.87475586 39.29052734 C62.90757772 43.19387306 62.92533811 47.09703418 62.93306923 51.00050735 C62.9385721 52.48271206 62.94931683 53.96490775 62.96562767 55.44703293 C63.09371343 67.57874883 62.3550732 77.95863684 53.6484375 87.09765625 C46.10088645 93.98889851 37.86244763 97.09765625 27.6484375 97.09765625 C20.34599238 96.4938365 13.83114521 95.12111029 7.6484375 91.09765625 C7.04386719 90.7109375 6.43929688 90.32421875 5.81640625 89.92578125 C-0.59065888 85.17980708 -4.57159878 77.60672698 -5.91821289 69.82177734 C-6.65848638 63.34696624 -6.4744414 56.8233141 -6.44921875 50.31640625 C-6.44735053 48.89294484 -6.44592853 47.46948279 -6.44493103 46.04602051 C-6.44113768 42.32411888 -6.43133507 38.60225712 -6.42022705 34.88037109 C-6.40994402 31.07259663 -6.40541873 27.26481564 -6.40039062 23.45703125 C-6.38970952 16.0038882 -6.37267196 8.55077784 -6.3515625 1.09765625 C-4.00303722 -0.07660639 -2.61382185 -0.01742548 0 0 Z " fill="#D6E3D9" transform="translate(361.3515625,679.90234375)"/>
<path d="M0 0 C1.19794189 -0.00315216 2.39588379 -0.00630432 3.63012695 -0.009552 C4.93425537 -0.00752777 6.23838379 -0.00550354 7.58203125 -0.00341797 C8.9234214 -0.00409107 10.26481144 -0.00506115 11.60620117 -0.00631714 C14.42074746 -0.00779382 17.23526207 -0.00564051 20.04980469 -0.00097656 C23.66493756 0.00472073 27.2799962 0.00144156 30.89512634 -0.00454903 C33.66598067 -0.00815544 36.43681727 -0.00701569 39.20767212 -0.00442123 C41.19142708 -0.0034258 43.17518272 -0.00647288 45.15893555 -0.009552 C46.35687744 -0.00639984 47.55481934 -0.00324768 48.7890625 0 C49.84971924 0.00079559 50.91037598 0.00159119 52.00317383 0.00241089 C54.39453125 0.12939453 54.39453125 0.12939453 55.39453125 1.12939453 C55.48138728 2.69112198 55.50155344 4.25668797 55.4921875 5.82080078 C55.48968994 6.67101807 55.48719238 7.52123535 55.48461914 8.3972168 C55.47551514 9.48446045 55.46641113 10.5717041 55.45703125 11.69189453 C55.43640625 15.13626953 55.41578125 18.58064453 55.39453125 22.12939453 C41.86453125 22.12939453 28.33453125 22.12939453 14.39453125 22.12939453 C14.39453125 27.73939453 14.39453125 33.34939453 14.39453125 39.12939453 C16.98167969 39.11779297 19.56882812 39.10619141 22.234375 39.09423828 C24.72973508 39.08644791 27.22509382 39.08037104 29.72045898 39.07446289 C31.45972293 39.06942249 33.19898261 39.06259023 34.93823242 39.05395508 C37.43279062 39.04187661 39.92729298 39.03616345 42.421875 39.03173828 C43.20416977 39.026577 43.98646454 39.02141571 44.79246521 39.01609802 C46.66020239 39.01590227 48.52782329 39.06739759 50.39453125 39.12939453 C51.95059876 40.68546204 51.52423894 42.18896825 51.52734375 44.34814453 C51.52927734 45.62238281 51.52927734 45.62238281 51.53125 46.92236328 C51.52738281 47.81568359 51.52351563 48.70900391 51.51953125 49.62939453 C51.52533203 50.969375 51.52533203 50.969375 51.53125 52.33642578 C51.52996094 53.18591797 51.52867188 54.03541016 51.52734375 54.91064453 C51.52621582 55.69503906 51.52508789 56.47943359 51.52392578 57.28759766 C51.39453125 59.12939453 51.39453125 59.12939453 50.39453125 60.12939453 C47.72827095 60.21794614 45.08806011 60.24464126 42.421875 60.22705078 C41.62423233 60.22563583 40.82658966 60.22422089 40.004776 60.22276306 C37.4471569 60.2171477 34.88962407 60.20459265 32.33203125 60.19189453 C30.6022148 60.18688151 28.87239699 60.18231826 27.14257812 60.17822266 C22.89316886 60.16802244 18.64394709 60.14845021 14.39453125 60.12939453 C14.39453125 71.67939453 14.39453125 83.22939453 14.39453125 95.12939453 C7.46453125 95.12939453 0.53453125 95.12939453 -6.60546875 95.12939453 C-6.62801821 82.89058795 -6.64638293 70.65179506 -6.65728092 58.41297245 C-6.66251014 52.73062941 -6.66960848 47.04830126 -6.6809082 41.3659668 C-6.69173571 35.88710317 -6.69774529 30.40825391 -6.70034599 24.92938042 C-6.70220049 22.83409842 -6.70582157 20.73881725 -6.71119881 18.64354134 C-6.71840743 15.7196187 -6.71945977 12.7957562 -6.71899414 9.87182617 C-6.72258942 8.99645203 -6.72618469 8.12107788 -6.72988892 7.21917725 C-6.71737225 0.00503867 -6.71737225 0.00503867 0 0 Z " fill="#D6E3D9" transform="translate(54.60546875,679.87060546875)"/>
<path d="M0 0 C1.76116866 0.01493488 3.52237072 0.02631601 5.28358459 0.03430176 C9.90240454 0.06473876 14.51918776 0.14322543 19.13720703 0.23193359 C23.85616506 0.3140095 28.57545467 0.3503594 33.29492188 0.390625 C42.5425579 0.47623075 51.78868723 0.61263272 61.03515625 0.78125 C61.05010437 2.53439765 61.06074507 4.28758237 61.06958008 6.04077148 C61.07597 7.01707016 61.08235992 7.99336884 61.08894348 8.99925232 C61.02308069 12.40582554 60.50753666 15.53115218 59.72265625 18.84375 C59.47902344 19.92785156 59.23539063 21.01195312 58.984375 22.12890625 C58.03515625 24.78125 58.03515625 24.78125 55.03515625 26.78125 C52.01405973 26.96616553 49.0863883 27.03331923 46.06567383 27.00830078 C45.14840012 27.00859283 44.2311264 27.00888489 43.28605652 27.00918579 C40.25050435 27.00779111 37.21519685 26.99222333 34.1796875 26.9765625 C32.07647333 26.97283286 29.97325742 26.96998566 27.87004089 26.96798706 C22.33142306 26.96034673 16.79290993 26.94069475 11.2543335 26.9185791 C5.60381487 26.89812932 -0.04672066 26.8889872 -5.69726562 26.87890625 C-16.78650437 26.85744928 -27.87566535 26.82330847 -38.96484375 26.78125 C-37.6538034 24.0862002 -36.36017193 21.87345019 -34.390625 19.609375 C-33.88724609 19.02671875 -33.38386719 18.4440625 -32.86523438 17.84375 C-32.07922852 16.9465625 -32.07922852 16.9465625 -31.27734375 16.03125 C-30.77267578 15.44859375 -30.26800781 14.8659375 -29.74804688 14.265625 C-28.72981109 13.09162875 -27.69684921 11.93022182 -26.64865112 10.78289795 C-24.92564436 8.85005293 -24.92564436 8.85005293 -23.74893188 6.69708252 C-18.2046454 -1.8345551 -9.04404977 -0.22517416 0 0 Z " fill="#548460" transform="translate(469.96484375,343.21875)"/>
<path d="M0 0 C10.14438931 -0.23229858 20.28814026 -0.40968026 30.43465328 -0.51812172 C35.1469295 -0.57018583 39.8573788 -0.64072546 44.56860352 -0.75439453 C49.12049184 -0.86352455 53.67063022 -0.92293718 58.22372627 -0.94877243 C59.9554149 -0.96716753 61.68701385 -1.00309315 63.41795158 -1.05730057 C76.96374384 -1.4644121 76.96374384 -1.4644121 82.02789307 2.17756653 C84.30152446 4.6779372 86.16880021 7.16603155 88 10 C88.89869676 11.105123 89.81024199 12.20011106 90.7421875 13.27734375 C91.44601563 14.15519531 92.14984375 15.03304688 92.875 15.9375 C95.67348261 19.4451215 95.67348261 19.4451215 98.7578125 22.69140625 C100 24 100 24 100 26 C87.79579945 26.09257494 75.59168207 26.16370148 63.38720226 26.20724869 C57.72049265 26.22814647 52.05402278 26.25650433 46.38745117 26.30175781 C40.92152352 26.34513705 35.45582684 26.36912059 29.98974037 26.37950897 C27.90165888 26.38691458 25.81359039 26.40137554 23.72560692 26.42292023 C20.80661824 26.4518487 17.88859078 26.45596041 14.96948242 26.45410156 C13.66720703 26.47567322 13.66720703 26.47567322 12.33862305 26.49768066 C6.50006067 26.45730072 6.50006067 26.45730072 3.99873352 24.16986084 C2.65123637 21.24227182 1.96380031 18.40656659 1.3125 15.25 C1.06113281 14.07953125 0.80976562 12.9090625 0.55078125 11.703125 C-0.04411541 7.70339428 -0.03688752 4.03826833 0 0 Z " fill="#548460" transform="translate(72,344)"/>
<path d="M0 0 C1 3 1 3 -0.1171875 5.93359375 C-11.06451003 27.75525666 -26.55017775 43.87513201 -50 52 C-59.96809466 54.9547121 -70.3041463 55.15206682 -80.625 55.0625 C-81.62917969 55.05798828 -82.63335937 55.05347656 -83.66796875 55.04882812 C-86.11204471 55.03718967 -88.5559882 55.0208424 -91 55 C-89.16701315 44.65912584 -82.05388761 34.96370986 -73.8671875 28.54296875 C-69.86479864 25.74725934 -65.66903706 23.98455425 -61.125 22.25 C-60.26640381 21.91419922 -59.40780762 21.57839844 -58.52319336 21.23242188 C-50.53369387 18.13778204 -42.46981279 15.24620219 -34.39819336 12.37402344 C-26.4009188 9.52576382 -18.46058996 6.54780192 -10.54711914 3.47460938 C-9.74137451 3.16330078 -8.93562988 2.85199219 -8.10546875 2.53125 C-7.05588989 2.12229492 -7.05588989 2.12229492 -5.98510742 1.70507812 C-4.00863258 1.00306615 -2.04211311 0.47356663 0 0 Z " fill="#548460" transform="translate(458,277)"/>
<path d="M0 0 C6.81063192 1.96814531 13.48893592 4.17839081 20.14453125 6.6171875 C21.07617599 6.95622101 22.00782074 7.29525452 22.96769714 7.64456177 C24.92532011 8.35757714 26.8824527 9.07194018 28.83911133 9.78759766 C31.79332128 10.86798612 34.74905274 11.9441212 37.70507812 13.01953125 C43.14160474 14.99984777 48.57253164 16.99500127 54 19 C54.70495605 19.25956482 55.40991211 19.51912964 56.13623047 19.78656006 C57.93295575 20.45049595 59.72639549 21.12330486 61.51953125 21.796875 C62.45772705 22.1484668 63.39592285 22.50005859 64.36254883 22.86230469 C78.37368423 28.9061713 86.52034389 38.60310061 93 52 C93 52.99 93 53.98 93 55 C67.01674427 55.23314985 42.76517745 54.06622332 23.07470703 35.13183594 C21.70247323 33.76850362 20.35072627 32.38464406 19 31 C18.26136719 30.27039063 17.52273437 29.54078125 16.76171875 28.7890625 C9.09167326 20.77647129 3.37265132 10.53953537 0 0 Z " fill="#548460" transform="translate(143,277)"/>
<path d="M0 0 C1.62330008 0.00798685 3.24661625 0.01315811 4.86993408 0.01564026 C8.2629768 0.02785539 11.65471935 0.06274839 15.04736328 0.1159668 C19.40111542 0.18404042 23.75395187 0.21281827 28.108181 0.22695827 C32.25974258 0.24206246 36.41107584 0.27650133 40.5625 0.3125 C41.35639885 0.31777647 42.1502977 0.32305294 42.96825409 0.3284893 C45.20667054 0.34688961 47.44443605 0.37902583 49.68261719 0.41577148 C51.59406525 0.4407798 51.59406525 0.4407798 53.54412842 0.46629333 C56.515625 0.75390625 56.515625 0.75390625 58.515625 2.75390625 C58.95856042 5.73358201 58.83976928 8.74502491 58.828125 11.75390625 C58.84423828 12.58664063 58.86035156 13.419375 58.87695312 14.27734375 C58.87759766 15.07398438 58.87824219 15.870625 58.87890625 16.69140625 C58.88188721 17.42230469 58.88486816 18.15320313 58.88793945 18.90625 C58.515625 20.75390625 58.515625 20.75390625 55.515625 22.75390625 C52.96882629 22.99200439 52.96882629 22.99200439 49.88598633 22.97753906 C48.15322197 22.97829437 48.15322197 22.97829437 46.38545227 22.97906494 C45.13547958 22.97179382 43.8855069 22.96452271 42.59765625 22.95703125 C40.63191529 22.96488002 38.66617372 22.97276471 36.70044231 22.98272324 C31.85414897 23.00531183 27.00814654 23.00964664 22.16186523 22.98388672 C19.44432747 22.97034846 16.72767823 22.97277641 14.01017761 22.99237061 C11.45368195 23.01011775 8.89689128 23.00464769 6.3405304 22.97296143 C-1.55223376 23.0613448 -5.74778151 24.34357611 -11.484375 29.75390625 C-13.98934504 31.00639127 -15.69290774 30.86765031 -18.4921875 30.8515625 C-19.47832031 30.84833984 -20.46445313 30.84511719 -21.48046875 30.84179688 C-22.51300781 30.83341797 -23.54554687 30.82503906 -24.609375 30.81640625 C-26.16978516 30.80963867 -26.16978516 30.80963867 -27.76171875 30.80273438 C-30.33599462 30.79092577 -32.91015646 30.774457 -35.484375 30.75390625 C-33.34359908 25.39847986 -30.74740277 20.62621428 -27.671875 15.75390625 C-27.25873047 15.08101562 -26.84558594 14.408125 -26.41992188 13.71484375 C-26.00162109 13.04710937 -25.58332031 12.379375 -25.15234375 11.69140625 C-24.78391357 11.10230469 -24.4154834 10.51320312 -24.03588867 9.90625 C-23.2678894 8.84083984 -23.2678894 8.84083984 -22.484375 7.75390625 C-22.17954193 7.167267 -21.87470886 6.58062775 -21.56063843 5.97621155 C-16.70883581 -1.71025543 -8.05090863 -0.15932916 0 0 Z " fill="#548460" transform="translate(133.484375,179.24609375)"/>
<path d="M0 0 C2.93353271 -0.40786743 2.93353271 -0.40786743 6.74121094 -0.45166016 C7.43412231 -0.46334229 8.12703369 -0.47502441 8.84094238 -0.48706055 C11.13889282 -0.5207391 13.43619925 -0.53139401 15.734375 -0.5390625 C17.3314029 -0.55123993 18.92842848 -0.56372583 20.52545166 -0.57650757 C23.8780225 -0.59901219 27.23036566 -0.6085403 30.58300781 -0.61083984 C34.87212206 -0.61611401 39.15933114 -0.66737346 43.4479332 -0.73035622 C46.74920022 -0.77130176 50.05001096 -0.78048265 53.35150909 -0.78095627 C54.93196906 -0.78633281 56.51243417 -0.80316484 58.09264374 -0.83180618 C70.40579982 -1.0362968 70.40579982 -1.0362968 74.22512817 1.44642639 C75.78630911 3.22194139 76.89677257 4.91531186 78 7 C78.5882959 7.81686279 79.1765918 8.63372559 79.78271484 9.4753418 C81.32295177 11.87363549 82.85676865 14.27519908 84.375 16.6875 C84.92027344 17.52861328 85.46554687 18.36972656 86.02734375 19.23632812 C86.54167969 20.04908203 87.05601562 20.86183594 87.5859375 21.69921875 C88.0504834 22.42971436 88.5150293 23.16020996 88.99365234 23.9128418 C90 26 90 26 90 30 C86.52172848 30.20588182 83.04504632 30.32846181 79.5625 30.4375 C78.58861328 30.49615234 77.61472656 30.55480469 76.61132812 30.61523438 C75.1659668 30.64907227 75.1659668 30.64907227 73.69140625 30.68359375 C72.81685791 30.72025146 71.94230957 30.75690918 71.04125977 30.79467773 C67.64821808 29.90807978 66.55553049 28.82132433 63.98779297 26.51147461 C58.18755141 21.77418322 52.75177302 22.02914334 45.50390625 22.1328125 C44.23401352 22.12289276 42.96412079 22.11297302 41.65574646 22.10275269 C38.30682334 22.0819584 34.96071173 22.0903136 31.61199951 22.11407471 C26.87277783 22.13933814 22.13345647 22.10522364 17.39427185 22.08297729 C14.87578158 22.07464467 12.35724152 22.07546999 9.83876038 22.08621216 C8.14075539 22.09018509 8.14075539 22.09018509 6.40844727 22.09423828 C5.40967056 22.09980743 4.41089386 22.10537659 3.3818512 22.1111145 C1 22 1 22 -1 21 C-2.35035219 17.43059771 -2.16766878 13.70939851 -2.1875 9.9375 C-2.20167969 8.70902344 -2.21585937 7.48054687 -2.23046875 6.21484375 C-2 3 -2 3 0 0 Z " fill="#548460" transform="translate(414,180)"/>
<path d="M0 0 C0.79407257 -0.00953201 1.58814514 -0.01906403 2.40628052 -0.02888489 C3.6783284 -0.02751778 3.6783284 -0.02751778 4.97607422 -0.02612305 C5.85351288 -0.03040817 6.73095154 -0.0346933 7.63497925 -0.03910828 C9.48581073 -0.04484213 11.33666474 -0.0453588 13.1875 -0.04101562 C16.02756751 -0.03784536 18.86660343 -0.06136158 21.70654297 -0.08666992 C23.50471873 -0.08894189 25.30289731 -0.08964689 27.10107422 -0.08862305 C27.9531546 -0.09783279 28.80523499 -0.10704254 29.68313599 -0.11653137 C32.0703125 -0.09765625 32.0703125 -0.09765625 35.90576172 0.2746582 C39.97567221 6.37952394 39.95007599 17.11364605 38.90576172 24.2746582 C35.41535918 26.60159323 34.16661263 26.49605969 30.05737305 26.40991211 C28.85635452 26.3897403 27.655336 26.36956848 26.41792297 26.3487854 C25.12098007 26.31658905 23.82403717 26.2843927 22.48779297 26.2512207 C21.146883 26.22504802 19.80595505 26.19978145 18.4650116 26.17538452 C14.93845861 26.10878748 11.4122842 26.02988359 7.88604736 25.94842529 C4.28664666 25.8674522 0.68702411 25.79810517 -2.91259766 25.7277832 C-9.9734052 25.5881277 -17.03387838 25.43547123 -24.09423828 25.2746582 C-22.3863274 15.68508459 -15.94210508 7.82479905 -8.09423828 2.2746582 C-5.27584766 0.66070229 -3.24232136 0.02147341 0 0 Z " fill="#548460" transform="translate(493.09423828125,290.725341796875)"/>
<path d="M0 0 C3.00555413 -0.36669445 5.79831141 -0.54033611 8.8125 -0.57421875 C10.13773682 -0.59631157 10.13773682 -0.59631157 11.48974609 -0.61885071 C13.36595997 -0.6428425 15.24230021 -0.65823529 17.11865234 -0.66577148 C19.96286649 -0.68721997 22.80152069 -0.7672427 25.64453125 -0.84960938 C40.90461088 -1.0765094 40.90461088 -1.0765094 47.0625 3.71484375 C49.2578125 5.9128418 49.2578125 5.9128418 51 8 C51.804375 8.93328125 52.60875 9.8665625 53.4375 10.828125 C53.953125 11.62734375 54.46875 12.4265625 55 13.25 C55.53625 14.05953125 56.0725 14.8690625 56.625 15.703125 C57.305625 16.84007812 57.305625 16.84007812 58 18 C58.4125 18.67546875 58.825 19.3509375 59.25 20.046875 C60 22 60 22 59 26 C28.805 25.505 28.805 25.505 -2 25 C-2 3 -2 3 0 0 Z " fill="#548460" transform="translate(74,291)"/>
<path d="M0 0 C1.01394333 0.00848969 2.02788666 0.01697937 3.07255554 0.02572632 C6.30336851 0.05924882 9.53166336 0.13452914 12.76171875 0.2109375 C14.95504202 0.24103845 17.1484045 0.26841402 19.34179688 0.29296875 C24.71179314 0.35903566 30.08032605 0.45937201 35.44921875 0.5859375 C37.5485375 4.70340374 39.26398363 8.66793942 40.63671875 13.0859375 C40.98089844 14.16875 41.32507813 15.2515625 41.6796875 16.3671875 C42.44758303 19.57909571 42.50567277 22.30071454 42.44921875 25.5859375 C37.99157745 25.79126518 33.53516873 25.91425341 29.07421875 26.0234375 C27.19669922 26.11141602 27.19669922 26.11141602 25.28125 26.20117188 C17.39996673 26.3455933 12.74288766 25.46866111 6.65356445 20.32763672 C-0.03471098 15.04309171 -9.33435903 13.79376746 -17.55078125 12.5859375 C-14.72879827 1.81109339 -10.44042046 -0.32978385 0 0 Z " fill="#548460" transform="translate(481.55078125,237.4140625)"/>
<path d="M0 0 C1.35226936 -0.038619 1.35226936 -0.038619 2.7318573 -0.07801819 C6.8738355 -0.16208467 11.01562736 -0.22808487 15.15820312 -0.27441406 C17.34176685 -0.30602702 19.52515961 -0.35375291 21.70800781 -0.41796875 C24.85457992 -0.50931546 27.99805326 -0.54804561 31.14575195 -0.57592773 C32.11784103 -0.61408096 33.08993011 -0.65223419 34.09147644 -0.69154358 C40.68686963 -0.67268046 40.68686963 -0.67268046 43.75015259 1.93630981 C46.68187813 5.62714334 47.7590332 7.40946523 47.7590332 12.24047852 C46.72004883 12.4712207 45.68106445 12.70196289 44.6105957 12.93969727 C31.07191013 15.94393633 31.07191013 15.94393633 19.5402832 23.30004883 C16.11921827 25.68686625 14.27930213 25.70660215 10.14575195 25.63110352 C8.89858398 25.61821289 7.65141602 25.60532227 6.36645508 25.59204102 C5.07288086 25.55852539 3.77930664 25.52500977 2.4465332 25.49047852 C1.13362305 25.47243164 -0.17928711 25.45438477 -1.53198242 25.43579102 C-4.76905168 25.38870637 -8.00463732 25.32294893 -11.2409668 25.24047852 C-10.77652708 19.25128576 -9.7490109 13.89742563 -7.7409668 8.24047852 C-7.51538086 7.5740332 -7.28979492 6.90758789 -7.05737305 6.22094727 C-4.96311832 0.13645572 -4.96311832 0.13645572 0 0 Z " fill="#548460" transform="translate(90.240966796875,237.759521484375)"/>
<path d="M0 0 C6.19157302 4.3722031 11.82022321 9.55112248 14 17 C14.29947586 20.23433934 14.44656348 22.10687304 13 25 C-3.17 25 -19.34 25 -36 25 C-31.44588745 18.16883117 -31.44588745 18.16883117 -28.375 15.125 C-27.78460938 14.52945313 -27.19421875 13.93390625 -26.5859375 13.3203125 C-25 12 -25 12 -23 12 C-23 11.34 -23 10.68 -23 10 C-20.93095035 8.22610722 -18.86238831 6.5715553 -16.6875 4.9375 C-15.79514648 4.24817383 -15.79514648 4.24817383 -14.88476562 3.54492188 C-9.99767689 -0.17363391 -6.00797703 -2.35628839 0 0 Z " fill="#548460" transform="translate(175,128)"/>
<path d="M0 0 C10.21753827 3.83157685 17.77947358 11.86843133 25.5 19.3125 C26.45390625 20.21871094 27.4078125 21.12492187 28.390625 22.05859375 C30.5 24.3125 30.5 24.3125 30.5 26.3125 C23.68238106 26.3377689 16.86477411 26.35533244 10.04711914 26.36743164 C7.72582549 26.37247333 5.40453503 26.37930651 3.08325195 26.38793945 C-0.24528795 26.40001225 -3.57378602 26.40572979 -6.90234375 26.41015625 C-8.46951393 26.41789818 -8.46951393 26.41789818 -10.06834412 26.42579651 C-11.02926468 26.42587204 -11.99018524 26.42594757 -12.98022461 26.42602539 C-13.83071884 26.428246 -14.68121307 26.43046661 -15.55747986 26.43275452 C-17.5 26.3125 -17.5 26.3125 -18.5 25.3125 C-19.40878386 20.15889029 -18.832356 16.1406939 -16.0625 11.6875 C-11.95455674 6.1844062 -7.11893252 0.63561898 0 0 Z " fill="#548460" transform="translate(433.5,126.6875)"/>
<path d="M0 0 C6.52014518 6.05972491 8.2711262 13.69583456 9.25 22.3125 C9.27758243 23.97893841 9.28602762 25.64622278 9.25 27.3125 C-3.30249177 21.25378767 -15.22341391 14.72279708 -26.5625 6.5625 C-27.55894531 5.84578125 -28.55539063 5.1290625 -29.58203125 4.390625 C-30.29746094 3.70484375 -31.01289063 3.0190625 -31.75 2.3125 C-31.75 0.9925 -31.75 -0.3275 -31.75 -1.6875 C-20.6523831 -6.69230762 -10.04642499 -7.86148821 0 0 Z " fill="#548460" transform="translate(232.75,103.6875)"/>
<path d="M0 0 C0.66 0.99 1.32 1.98 2 3 C-10.78660606 13.41453249 -24.61276646 22.86544213 -40 29 C-40.71486113 19.88552054 -38.55281213 10.49888952 -32.625 3.375 C-23.34674447 -6.04203286 -11.29562394 -5.60098102 0 0 Z " fill="#548460" transform="translate(402,102)"/>
<path d="M0 0 C1.93166016 0.01740234 1.93166016 0.01740234 3.90234375 0.03515625 C5.19269531 0.04417969 6.48304688 0.05320312 7.8125 0.0625 C8.81152344 0.07410156 9.81054688 0.08570313 10.83984375 0.09765625 C9.2126301 3.81194828 6.89313889 6.71406676 4.33984375 9.84765625 C3.54578125 10.8325 2.75171875 11.81734375 1.93359375 12.83203125 C1.24265625 13.5796875 0.55171875 14.32734375 -0.16015625 15.09765625 C-0.82015625 15.09765625 -1.48015625 15.09765625 -2.16015625 15.09765625 C-2.16015625 15.75765625 -2.16015625 16.41765625 -2.16015625 17.09765625 C-6.12015625 17.09765625 -10.08015625 17.09765625 -14.16015625 17.09765625 C-12.43341802 12.78081067 -10.8250072 10.01052322 -8.09765625 6.34765625 C-7.38480469 5.3834375 -6.67195313 4.41921875 -5.9375 3.42578125 C-3.40244951 0.10514368 -3.40244951 0.10514368 0 0 Z " fill="#548460" transform="translate(395.16015625,352.90234375)"/>
<path d="M0 0 C4.91747972 -0.89279891 9.11661789 -1.18553181 14 0 C18.50238979 3.6294502 21.42732126 8.90799301 24 14 C24 14.99 24 15.98 24 17 C20.41903562 17.83892441 17.57239749 17.94284761 14 17 C8.26035653 12.23684133 3.65849294 6.5080122 0 0 Z " fill="#548460" transform="translate(198,353)"/>
<path d="M0 0 C0.99386719 0.02707031 1.98773438 0.05414063 3.01171875 0.08203125 C4.15060547 0.13423828 4.15060547 0.13423828 5.3125 0.1875 C4.66065769 3.95568431 2.93979717 6.62730354 0.875 9.8125 C0.25753906 10.77414062 -0.35992187 11.73578125 -0.99609375 12.7265625 C-2.6875 15.1875 -2.6875 15.1875 -4.6875 17.1875 C-6.8515625 17.3828125 -6.8515625 17.3828125 -9.3125 17.3125 C-10.12976563 17.29445313 -10.94703125 17.27640625 -11.7890625 17.2578125 C-12.41554688 17.23460937 -13.04203125 17.21140625 -13.6875 17.1875 C-14.0175 16.5275 -14.3475 15.8675 -14.6875 15.1875 C-13.578125 12.47265625 -13.578125 12.47265625 -11.9375 9.25 C-11.40640625 8.18910156 -10.8753125 7.12820313 -10.328125 6.03515625 C-7.37922837 0.91671425 -6.01546701 -0.2123106 0 0 Z " fill="#548460" transform="translate(362.6875,352.8125)"/>
<path d="M0 0 C4.24006966 -0.82681358 7.79667364 -1.11234368 12 0 C16.49486578 4.8013339 20 10.30060913 20 17 C16.778165 17.73833719 14.20212373 17.89718947 11 17 C6.08831592 12.16426979 2.97629729 6.15344901 0 0 Z " fill="#548460" transform="translate(235,353)"/>
</svg>
